
<?xml version="1.0" encoding="UTF-8" standalone="no"?>
<svg
   xmlns:dc="http://purl.org/dc/elements/1.1/"
   xmlns:cc="http://creativecommons.org/ns#"
   xmlns:rdf="http://www.w3.org/1999/02/22-rdf-syntax-ns#"
   xmlns:svg="http://www.w3.org/2000/svg"
   xmlns="http://www.w3.org/2000/svg"
   xmlns:sodipodi="http://sodipodi.sourceforge.net/DTD/sodipodi-0.dtd"
   xmlns:inkscape="http://www.inkscape.org/namespaces/inkscape"
   viewBox="-219.7 -3.45 434.95 38.65"
   id="svg2832"
   version="1.1"
   inkscape:version="0.47 r22583"
   width="100%"
   height="100%"
   sodipodi:docname="civilwar.svg">
  <metadata
     id="metadata2844">
    <rdf:RDF>
      <cc:Work
         rdf:about="">
        <dc:format>image/svg+xml</dc:format>
        <dc:type
           rdf:resource="http://purl.org/dc/dcmitype/StillImage" />
      </cc:Work>
    </rdf:RDF>
  </metadata>
  <defs
     id="defs2842">
    <inkscape:perspective
       sodipodi:type="inkscape:persp3d"
       inkscape:vp_x="0 : 19.325 : 1"
       inkscape:vp_y="0 : 1000 : 0"
       inkscape:vp_z="434.95 : 19.325 : 1"
       inkscape:persp3d-origin="217.475 : 12.883333 : 1"
       id="perspective2846" />
  </defs>
  <sodipodi:namedview
     pagecolor="#ffffff"
     bordercolor="#666666"
     borderopacity="1"
     objecttolerance="10"
     gridtolerance="10"
     guidetolerance="10"
     inkscape:pageopacity="0"
     inkscape:pageshadow="2"
     inkscape:window-width="1644"
     inkscape:window-height="801"
     id="namedview2840"
     showgrid="false"
     inkscape:zoom="1"
     inkscape:cx="214.70417"
     inkscape:cy="59.325"
     inkscape:window-x="2031"
     inkscape:window-y="222"
     inkscape:window-maximized="0"
     inkscape:current-layer="g2836" />
  <desc
     id="desc2834">Created by Action Script Viewer - http://www.buraks.com/asv</desc>
  <g
     id="g2836">
    <path
       d="M161.55,-0.9 Q162.25,0.2,161.45,2.25 Q160.85,3.95,159.2,5.55 L161.3,7.35 Q162.8,5.25,163.4,3.05 Q164,0.8,163.1,-0.65  Q162.35,-1.8,161.1,-1.95 Q162.5,-2.3,163.5,-1.1 Q164.5,0.1,164.35,1.95 Q164.2,4.15,162.05,7.55 Q162.85,7.85,163.75,8.7  L164.5,9.7 L162.95,9.55 Q163.6,14.5,160.7,18.15 L157.7,20.8 Q157.75,23.25,155.8,26 Q156.1,28.25,155.1,31.4 L154.1,34.1  Q156,34.4,158.95,31.05 Q159.85,29.9,161.15,29.85 L162.85,30.2 Q164.5,31,166.5,30.9 Q168.25,30.85,168.4,30.35  Q169.1,28.6,171.05,28.95 Q171.65,29.05,174.05,30.65 Q176.55,32.35,177.25,32.5 L179.55,32.4 Q180.7,32.05,180.75,31.6  L180.3,30.45 L181.1,30 Q181.95,29.6,181.75,29.2 L180.55,29.25 L179.6,28.95 L177.85,27.6 Q177.1,26.8,177.55,26.15  Q178.15,25.35,180.05,24.45 Q181.75,23.65,183,23.45 Q183.4,23.4,183.75,24.1 L184,25.5 Q184.7,25.7,185.5,22.8  Q187,22.4,187.5,22 Q188.65,21,188.65,18.45 Q189.2,17.75,189.2,17 Q189.2,16.1,188.3,15.4 L184.65,15.8  Q181.8,15.7,180.6,13.7 Q180.65,12.55,176.7,9.3 L172.25,5.8 Q171,4.45,170.25,2.25 Q170.1,1.7,168.65,1.35 L167.25,1.1  L166.65,4 L169.1,4.55 L176.25,10.05 Q178.15,11.35,178.95,12.55 Q179.75,13.75,179.25,14.55 Q179.6,15.95,185.95,16.75  L187.35,18.5 L185.9,18.6 L184.95,17.4 Q178.7,15.9,178.3,14.9 Q178.15,14.35,178.45,13.9 Q178.6,13.7,178,12.95  Q177.25,11.95,175.65,10.85 L171.35,7.55 L168.5,5.35 Q168.05,5.05,167.5,5.05 L165.7,4.85 Q166.6,2.45,166.55,0.7  Q166.5,-0.6,165.3,-1.75 L163.6,-2.95 Q159.95,-4.35,157.6,-1.85 Q156.1,-0.25,155.8,1.6 L157.9,2.25 Q158.3,-0.8,160,-1.45  Q160.95,-1.8,161.55,-0.9 M214.9,31.1 Q215.8,29.6,214.35,28.25 Q212.95,27,211.6,27.35 L208.25,27.35 L208.35,28.55  Q212.1,27.7,213.9,29.3 Q214.75,30.15,214.9,31.1 M206.25,27.4 Q206.35,28.05,205.8,28.6 L205.8,28.65  Q201.9,31.1,196.25,30.4 Q190.6,29.7,185.6,26.25 L185.15,28.2 Q190.5,31.2,195.9,31.85 Q202.25,32.6,206.85,29.6  L207.5,28.6 L207.6,27.4 Q207.45,26.2,206.6,25.5 Q205.65,24.7,204.45,25.05 Q203.45,25.2,203,26.15  Q202.45,27.2,203.35,28.1 L204.85,28.6 L205.5,27.4 Q204.4,27.35,204.15,27 Q203.9,26.65,204.7,26.35  Q205.3,26.25,205.75,26.6 L206.25,27.4 M164.5,7.6 Q166.65,9.5,166.5,11.1 L166.1,11.15 L165.6,11.1 Q165.15,11,164.9,11.35  Q164.6,11.65,164.7,12.1 Q165,13.4,164.95,14.8 Q164.8,17.6,163.05,19.8 Q160.95,22.4,160.05,24.05  Q158.8,24.85,157.55,26.8 L156.6,28.55 L157.15,25.45 Q157.4,24.75,157.6,24.4 Q158.45,23,160.85,20.5  Q163.2,18.05,163.65,14.1 L163.65,10.65 L163.75,10.35 Q163.85,10.25,164.05,10.25 Q164.95,10.45,165.5,10.25 L165.7,10  L165.35,8.8 L164.45,7.7 L164.5,7.6 M162.25,10 Q161.8,8.7,160.15,7.05 L158.5,5.65 L157.7,6.7 L159.1,7.8 L161.1,9.8  L158.5,10.2 L157.25,11.05 L161.6,10.9 Q161.95,10.9,162.15,10.6 L162.25,10 M168.85,17.5 Q167.5,17.9,166.85,19.15  Q166.2,20.4,166.6,21.75 Q167.15,23.45,168.7,24.3 Q170.3,25.15,172,24.6 Q174.2,24,175.3,21.9 Q176.4,19.85,175.7,17.7  L174.15,15.4 Q172.6,13.2,172.6,12.75 L175.7,13.2 Q177.1,13.45,177.45,14.45 Q177.85,15.4,176.8,16.8  Q176.65,17.25,176.85,18.1 Q177.25,20.3,176.15,22.4 Q174.9,24.75,172.3,25.55 L169.75,25.7 L168.25,25.15  Q166.25,24.1,165.65,22 Q165.15,20.3,166,18.7 Q166.85,17.1,168.55,16.55 Q170,16.15,171.3,16.85 Q172.6,17.55,173.05,18.95  Q173.4,20.1,172.8,21.2 Q172.2,22.3,171.05,22.65 L169.2,22.5 Q168.2,21.95,168,21 Q167.7,20.2,168.15,19.45  Q168.55,18.65,169.35,18.45 L169.65,19.35 Q169.25,19.5,169,19.9 Q168.8,20.2,168.9,20.75 L169.65,21.6 L170.75,21.7  Q171.55,21.5,171.95,20.75 Q172.35,20.05,172.1,19.25 Q171.75,18.2,170.8,17.7 L168.85,17.5 M176.05,14.25  Q175.7,14.3,175.45,14.6 Q175.2,14.85,175.25,15.2 Q175.35,16.05,176.2,16.05 L176.8,15.75 L177,15.1  Q176.9,14.25,176.05,14.25 M170.85,27.35 Q166.7,29.25,165.9,29.2 L163.1,28.3 L160.65,27.55 Q159.55,28.45,157.6,31.15  L155.8,33.2 L155.5,33.3 L155.8,32.65 Q158.3,27.2,160.05,25.75 L160.1,25.7 L160.15,25.75 L162.8,27.05  Q164.95,28.05,165.85,28.2 L171.5,27 L170.85,27.35 M159.8,3.35 Q156.95,2.15,152.9,1.85 Q144.95,1.3,137.6,5.35  Q133,7.9,126.35,12.8 L120.6,17.25 L124,19.95 Q124.75,19.65,124.95,18.6 L123.35,17.25 L123.4,17.2 L123.35,17.15  Q131.1,11.15,138.4,6.6 Q145.05,2.45,152.7,3.15 Q156.55,3.5,159.15,4.7 L159.8,3.35 M154.35,4.5 Q149.25,3.75,141.75,7.2  Q138,8.95,133.65,12.8 L129.85,16.45 L130.95,17.5 L134.55,14 Q138.75,10.2,142.35,8.55 Q149.35,5.35,154.15,6  Q154.4,6,154.35,4.5 M155.05,5.05 Q155.25,6.5,155.9,7.9 L157.2,7.15 L157.1,6.35 Q157.1,5.4,157.55,4.7 L154.95,3.85  L155.05,5.05 M157.8,7.35 L152.95,11.45 L153.9,12.45 Q154.85,11.55,159.5,8.9 L157.8,7.35 M147.75,9.1  Q145.85,9.25,141.4,11.6 Q136.55,14.15,134.35,16.65 Q134.05,16.95,134.2,17.35 L134.75,17.85 L136.8,18  Q141.2,18,145.5,16.6 L146.2,16.4 Q150.9,15,151.95,14.15 L152.1,14.05 L151.15,12.9 L151.1,12.95  Q149.85,13.8,145.75,14.95 L145.05,15.15 Q140.75,16.6,136.6,16.5 Q139,14.45,143,12.5 Q146.6,10.7,148,10.6  Q149.15,10.35,150.65,11.6 L153.1,14.3 L153.25,14.5 Q153.6,14.85,154,14.75 Q152.6,15.85,152.1,16.8 L153.2,17.55  L154.95,15.65 Q157.25,13.75,160.6,13.55 Q160.6,14.25,159.75,15.55 Q158.75,17.1,156.95,18.75 L157.1,19.95  Q160.75,17.15,161.65,14.65 L161.85,12.55 Q161.65,12.05,161.2,12.15 Q157.4,12.35,154.5,14.35 Q154.7,13.9,154.45,13.55  L154.3,13.35 Q152.4,11.05,151.3,10.2 Q149.5,8.75,147.75,9.1 M149.4,16.25 Q150,17.25,152.2,18.8 L154.65,20.3  L154.65,18.95 Q153.75,18.6,152.35,17.4 L150.55,15.55 L149.4,16.25 M143.55,21.7 L136.35,24.3 L135.3,23.25 L134.2,24.3  L135.95,26.05 L142.5,23.7 Q143.35,25.75,145.1,26.7 Q146.35,27.4,148.15,27.4 Q150.2,27.4,152.8,26.35 L152.2,24.95  Q148.1,26.6,145.85,25.4 Q144.75,24.8,144.1,23.65 L143.7,22.55 L143.55,21.7 M151.4,22.15 Q152.35,23.25,152.8,24.45  Q154.1,28.25,151.6,33.45 Q148.75,30.75,148.3,27.8 L146.95,27.8 Q147.45,30.3,149.4,32.9 L151.4,35.1 L151.8,35.2  L151.95,35.2 L152.4,34.85 Q155.7,28.6,154.05,23.95 Q153.5,22.45,152.4,21.2 L151.3,20.2 L150.55,21.3 L151.4,22.15  M148.8,19.35 Q143.95,18.05,138.7,19.35 Q137.2,19.65,133.65,21.5 L130.3,23.4 Q129.8,22.1,127.9,20.5 L126.5,21.6  Q127.5,22.4,129.95,25.7 L133.1,23.45 Q136.5,21.4,139.25,20.75 Q142.95,19.85,147.75,20.95 L148.8,19.35 M151.45,19.55  L150.6,18.45 Q148.9,19.6,147.7,22.55 Q147.1,24,146.8,25.4 L148.1,25.55 L149.15,22.65 Q150.1,20.45,151.45,19.55  M154.65,16.45 L155.2,19.05 Q155.55,21.95,154.5,23.6 L154.95,25.25 Q156.8,22.85,156.55,19.1 L155.9,15.65 L154.65,16.45  M125.2,12.55 L121.95,9.9 L117.35,9.9 L117.4,24.65 L121.95,24.65 L128.65,19.3 Q127.8,18.9,127.4,18 L121.35,22.95  L119.1,22.95 L119.05,11.6 L121.35,11.6 L124.05,13.8 L124.6,13.4 L125.2,12.55 M131.4,21.35 L132.65,20.35 L132.35,20  L127.4,15 L126,16 L127.6,17.5 L130.95,20.85 L131.4,21.35 M-167.95,-2.5 Q-167.95,-2.95,-168.1,-3.15 L-175.35,12.55  L-175.35,12.6 L-168.15,28.45 L-168.15,22.25 L-168.8,22.1 L-169.05,21.9 L-169.7,21.2 Q-170.35,20.55,-170.3,19.95  L-170,18.4 Q-169.85,17.45,-170.05,16.75 Q-168.25,17.3,-168.05,19.2 Q-167.75,18.5,-168.05,17.2  Q-165.85,17.95,-165.35,20.95 Q-165.15,21.9,-165.25,22.35 Q-165.35,22.75,-165.8,23.4 L-166.7,24.95 L-166.95,25.5  L-166.6,26.55 L-166.25,27.4 L-166.25,27.85 L-166.85,28.7 L-167.4,29.5 L-167.25,30.5 L-166.6,31.85 L-164.2,31.9  L-163.25,29.8 L-163.85,30.35 L-165.3,31.15 Q-165.85,31.35,-166.2,31.15 L-166.55,30.55 L-166.8,29.85 L-166.5,29.3  L-165.8,28.35 L-165.45,27.8 L-165.55,27.2 L-165.9,25.7 L-165.7,25.15 L-164.25,22.85 Q-163.85,22.3,-163.85,21.7  L-164.05,18.95 Q-164.05,17.55,-162.75,17.2 Q-163.05,18.45,-162.8,19.2 Q-162.55,18.05,-162.15,17.6  Q-161.7,17.05,-160.8,16.75 Q-161,17.6,-160.65,19.4 L-160.55,20.3 L-161.35,21.5 Q-162.05,22.2,-162.65,22.25  L-162.65,28.45 L-155.45,12.55 L-162.7,-3.15 L-162.85,-2.35 L-162.9,-1.5 L-163.35,-0.8 L-163.5,-0.1 L-163.45,-0.15  L-162.95,-0.75 L-162.45,-0.65 Q-162.3,-0.5,-162.3,-0.2 L-160.5,6.85 L-160.7,7.5 L-161.7,8.5 L-161.9,9.35 L-161.25,8.65  Q-160.65,8.15,-160.2,8.45 L-159.95,9.05 L-159.4,11.25 Q-159.15,11.95,-159.2,12.15 Q-159.2,12.85,-160.05,13.15  L-160.85,13.2 L-161.65,13.1 L-161.9,12.8 L-161.8,12.3 L-161,11.5 L-160.85,11.4 Q-161.6,11.4,-162.3,11.9 L-163.15,13  Q-163.15,12.4,-162.8,11.85 Q-163.6,12.05,-164.05,13.2 L-164.1,12.85 Q-164.25,12.25,-165.15,11.35 L-165.75,10.7  L-166.1,9.75 L-166.05,9.55 L-165.2,8.75 L-164.05,8.2 L-163.2,7.4 Q-162.75,6.85,-162.8,6.15 Q-162.95,4.35,-165.15,4.1  Q-165,3.8,-164.05,3.2 L-163.6,2.8 Q-163.4,2.55,-163.55,2.15 Q-163.5,2.85,-164.7,3.05 L-166,3.05 Q-166,2.8,-166.35,2.1  L-166.55,1.05 L-166.35,0.45 L-166.7,0.85 L-166.95,1.35 L-166.95,2.2 L-166.85,3.05 L-167.45,4.2 L-167.4,4.65  L-167.7,5.25 L-167.85,5.45 L-167.8,5.8 Q-167.8,6.25,-167.4,6.5 L-167.25,6.55 Q-167.35,6,-166.75,5.4  Q-166.45,5,-166.05,4.85 Q-165.05,4.4,-164.1,5.1 L-163.55,5.8 Q-163.35,6.3,-163.65,6.8 Q-164.1,7.5,-165.35,7.85  L-166.35,8.25 Q-167.35,8.75,-167.5,9.85 Q-167.65,10.65,-167.25,11.6 Q-166.75,12.75,-166.75,13.2 Q-167.2,12.1,-168,11.85  L-167.95,11.95 Q-167.65,12.4,-167.65,13.05 L-168.5,11.9 Q-169.3,11.4,-170,11.4 L-169.25,11.95 Q-168.75,12.65,-169,12.95  L-169.6,13.2 Q-171.05,13.45,-171.5,12.6 Q-171.7,12.25,-171.5,11.55 L-170.85,9.05 L-170.7,8.55 L-169.95,8.45  L-169.05,9.2 L-168.9,9.35 L-169.1,8.5 L-169.85,7.75 L-170.2,7.3 L-170.25,6.65 L-168.55,-0.1 L-168.35,-0.7 L-167.9,-0.8  L-167.75,-0.65 L-167.35,-0.15 L-167.3,-0.1 L-167.45,-0.8 L-167.95,-1.65 L-167.95,-2.5 M-163.75,-0.55 L-167.9,0.1  L-168.05,0.5 L-163.9,-0.2 L-163.75,-0.55 M-159.4,-0.55 L-159.3,-0.3 L-154.9,9.8 L-154.4,9.95 L-153.95,9.8 L-153.15,5.5  L-149.3,6.5 Q-145.85,7.55,-144.1,9.1 Q-141.3,11.65,-140.95,15.5 L-143.3,14.65 L-145.4,13.75 L-146.05,14.4 L-146.65,15  L-144.15,16.05 Q-142.45,16.75,-141.55,16.85 L-140.9,16.35 L-140.3,15.65 Q-140.2,11.25,-143.15,8.5  Q-144.85,6.9,-149.55,5.45 Q-153.95,4.1,-154,4.45 L-154.65,8.15 L-158.5,-0.75 L-159,-0.85 L-160.7,-0.75 L-160.6,-0.45  L-159.4,-0.55 M-117.4,9.95 L-122,9.95 L-125.25,12.55 L-124.65,13.4 L-124.1,13.85 L-121.4,11.65 L-119.1,11.65  L-119.15,22.95 L-121.4,22.95 L-127.45,18.05 Q-127.9,18.95,-128.7,19.3 L-122,24.65 L-117.45,24.65 L-117.4,9.95  M-141.3,9.15 L-140.75,9.9 L-135.85,10.2 Q-131.95,11.2,-127.3,14.35 L-123.4,17.3 L-125,18.65 Q-124.8,19.7,-124,19.95  L-120.65,17.3 L-122.6,15.6 Q-127.05,12.2,-131.65,10.45 Q-137.05,8.4,-141.3,9.15 M-139.1,12.3 Q-135.5,13.75,-131.15,17.5  L-130.05,16.2 Q-135.65,12.2,-139.8,10.75 L-139.5,11.7 L-139.1,12.3 M-134.15,22.8 Q-134.85,22.4,-134.95,22.55  L-137.5,25.7 Q-138.65,23.9,-141.25,22.7 Q-143.45,21.7,-145.8,21.45 Q-148.95,21.1,-153.05,22.4 L-154.4,22.9  Q-155.85,23.4,-158,24.45 L-154.4,17 Q-154.35,16.8,-154.9,16.8 L-156.5,16.8 L-156.6,17.1 L-155.45,17.1 L-155.5,17.15  L-159.8,26 Q-159.85,26.2,-159.4,26.2 L-158.85,26.15 L-154,23.75 Q-149.7,21.95,-146.6,22.45 Q-144.1,22.8,-142,23.9  Q-139.35,25.3,-138.9,27.4 L-138.15,27.75 L-137.35,27.8 L-133.5,23.35 L-134.15,22.8 M-137.55,17.75  Q-140.4,18.85,-144,19.2 Q-148.65,19.65,-151.15,16.5 Q-153.4,13.75,-152.3,12.6 Q-151.65,12,-150.5,12.35 L-149.2,12.95  L-148.05,12 Q-148.8,11.65,-150.95,11.35 L-153.6,11.15 Q-154.35,14.65,-152.45,17.1 Q-151.2,18.7,-148.85,19.6  Q-146.5,20.5,-143.65,20.5 Q-140.4,20.5,-137.6,19.3 Q-133.95,21.55,-130,25.7 L-128.4,23.7 L-126.55,21.6 L-127.95,20.5  Q-129.75,22,-130.35,23.4 Q-135.25,18.75,-137.4,17.7 L-137.55,17.75 M-131,20.9 L-126.05,16 L-127.45,15 L-132.7,20.35  L-131.4,21.35 L-131,20.9 M-144.7,10.25 Q-148,11.9,-149.8,15.75 L-149.55,16.7 Q-149.15,17.35,-149,17  Q-148.25,15.35,-146.85,13.65 Q-145.4,12,-143.95,11.05 L-144.7,10.25 M-153.75,21.95 L-152.6,21.75 L-151.2,19.75  Q-151.1,19.65,-151.6,19.6 L-152.15,19.7 L-153.75,21.95 M-156,26.6 L-154.9,25.05 L-156.2,25.45 L-157,26.55 L-156.85,26.7  Q-152.8,28.3,-155.45,30.05 Q-157.3,31.3,-160.55,31.9 L-165.4,32.25 L-167.05,32.3 Q-168.4,32.25,-168.6,31.85  L-175.5,17.1 L-175.55,17.05 L-174,17.05 L-174.1,16.75 L-176.1,16.7 Q-176.65,16.7,-176.6,16.9 L-169.5,32.05  Q-169.2,32.7,-166.4,32.7 L-162.9,32.5 L-157.15,31.6 Q-152.85,30.45,-153.5,28.3 Q-153.65,27.9,-154.7,27.15  Q-155.8,26.3,-156,26.6 M-170.85,0.8 L-174.05,1.95 Q-175.65,2.6,-176.75,3.65 Q-178.3,5.1,-177.5,6.4 L-175.95,7.45  Q-175.35,7.7,-175.4,7.9 L-175.9,8.65 L-177.85,11.65 Q-183.8,14.25,-187.25,16.95 L-189.55,19 Q-183.6,22,-177.7,23.15  L-176.3,21.75 Q-179.3,17.75,-179.9,14.35 L-181.5,15.15 Q-181.2,17.55,-179.1,21.1 Q-184.65,19.6,-187.35,18.25  Q-185.3,16.15,-181,13.95 Q-178.85,12.85,-177.1,12.1 L-174.3,7.7 L-174.4,7.55 Q-177.95,6.15,-175.85,4  Q-174.35,2.45,-171.15,1.3 L-170.85,0.8 M-179.3,7.25 Q-180,8.75,-189.25,13.95 Q-196.4,17.9,-201.95,19.25 L-207.75,19.85  Q-211.8,19.8,-216.15,18.5 Q-206.4,16.9,-207.75,19.85 L-207.05,19.2 L-206.4,18.5 Q-205.15,16.2,-210.95,16.6  L-218.25,17.75 L-218.9,18.35 L-219.7,19.15 Q-210.95,22.55,-201.95,20.5 L-199.15,19.7 Q-191.05,17.1,-180.95,9.35  Q-181.6,11.35,-181.6,12.95 L-180.15,12.1 Q-180.3,9.55,-179.3,7.25 M-166.1,33 L-165.45,34.55 L-165.4,34.55 L-164.7,33  L-166.1,33 "
       id="path2838"
       style="fill:#999999;fill-opacity:1;fill-rule:nonzero;stroke:none"
       stroke-opacity="1"
       stroke-width="0.01"
       stroke="#000000"
       fill="none" />
  </g>
</svg>
