<?xml version="1.0" encoding="UTF-8" standalone="no"?>
<svg
   xmlns:dc="http://purl.org/dc/elements/1.1/"
   xmlns:cc="http://creativecommons.org/ns#"
   xmlns:rdf="http://www.w3.org/1999/02/22-rdf-syntax-ns#"
   xmlns:svg="http://www.w3.org/2000/svg"
   xmlns="http://www.w3.org/2000/svg"
   xmlns:sodipodi="http://sodipodi.sourceforge.net/DTD/sodipodi-0.dtd"
   xmlns:inkscape="http://www.inkscape.org/namespaces/inkscape"
   viewBox="-259.2 -1.5 518.4 28.8"
   id="svg3636"
   version="1.1"
   inkscape:version="0.47 r22583"
   width="100%"
   height="100%"
   sodipodi:docname="college.svg">
  <metadata
     id="metadata3648">
    <rdf:RDF>
      <cc:Work
         rdf:about="">
        <dc:format>image/svg+xml</dc:format>
        <dc:type
           rdf:resource="http://purl.org/dc/dcmitype/StillImage" />
      </cc:Work>
    </rdf:RDF>
  </metadata>
  <defs
     id="defs3646">
    <inkscape:perspective
       sodipodi:type="inkscape:persp3d"
       inkscape:vp_x="0 : 14.4 : 1"
       inkscape:vp_y="0 : 1000 : 0"
       inkscape:vp_z="518.4 : 14.4 : 1"
       inkscape:persp3d-origin="259.2 : 9.6 : 1"
       id="perspective3650" />
  </defs>
  <sodipodi:namedview
     pagecolor="#ffffff"
     bordercolor="#666666"
     borderopacity="1"
     objecttolerance="10"
     gridtolerance="10"
     guidetolerance="10"
     inkscape:pageopacity="0"
     inkscape:pageshadow="2"
     inkscape:window-width="648"
     inkscape:window-height="483"
     id="namedview3644"
     showgrid="false"
     inkscape:zoom="1.0416667"
     inkscape:cx="108.42947"
     inkscape:cy="14.4"
     inkscape:window-x="2375"
     inkscape:window-y="376"
     inkscape:window-maximized="0"
     inkscape:current-layer="svg3636" />
  <desc
     id="desc3638">Created by Action Script Viewer - http://www.buraks.com/asv</desc>
  <g
     id="g3640">
    <path
       fill="none"
       stroke="#000000"
       stroke-width="0.01"
       stroke-opacity="1"
       d="M247.15,20.8 Q247.8,20.5,248.65,20.5 L249.15,21.75 Q248.05,21.7,247.75,22 Q247.45,22.3,248.2,22.7 L249.3,22.6  L249.85,21.85 Q250.1,21.25,249.6,20.6 Q246.2,17.7,240.6,17.4 Q235.35,17.1,230.85,19.15 L229.1,18.2  Q234.85,15.95,240.25,16.05 Q246.65,16.2,250.8,19.75 Q251.25,20.35,251.3,20.85 L251.25,22.1 Q250.95,23.25,249.95,23.8  L247.8,23.95 Q246.85,23.65,246.5,22.65 Q246.1,21.55,247.15,20.8 M252.15,21 L256.3,21.6 Q258.3,21.45,258,19.65 L259,19.4  Q259.65,21.05,258,22.15 Q256.5,23.15,255.15,22.65 L251.9,22.2 L252.15,21 M234.6,21.75 L233.1,22.4 L230.15,23.3  L222.55,24.15 Q218.35,24.15,215.35,21.5 Q213.85,20.15,213.1,18.65 L214.65,18.35 Q215.25,19.5,216.5,20.55  Q218.95,22.55,222.55,22.55 Q227.2,22.55,230.65,21.5 Q221.35,17.1,217.9,17.7 L217.15,16.15 Q220.1,15.65,226.75,18.2  L233.15,20.95 L234.6,21.75 M225.65,20.7 L219,20.5 Q217.3,19.8,216.25,18.9 Q215.85,17.7,214.75,16.2  Q212.5,13.25,208.75,11.4 L209,9.8 Q215.5,13,217.4,18.35 Q219.5,19.8,221.95,20 L223.95,19.85 L225.65,20.7 M206.45,2.75  Q208.25,4.9,208.35,8.85 Q208.4,10.4,207.95,11.95 L206.45,11.5 L206.75,8.85 Q206.6,3.25,203,2.4 Q200.95,1.95,198.6,3.1  Q196.35,4.15,195.5,5.8 L194.85,7.25 L193.25,6.95 L194.1,5.1 Q195.15,3,197.85,1.65 Q200.7,0.25,203.35,0.85  Q205.2,1.25,206.45,2.75 M204.4,10 Q203.8,12.3,202.05,13.8 L200.6,12.95 Q202.3,11.55,202.85,9.65 L204.4,10 M206.05,10.3  L204.95,9.85 Q202.35,9.05,198.35,8.95 L198.4,7.35 Q202.8,7.45,205.45,8.35 L206.25,8.6 L206.05,10.3 M202.95,7.3  Q202.8,6.55,202,6.1 Q200.85,5.3,199.3,5.65 Q198.4,5.9,197.8,7.05 Q197.15,8.55,198.05,10.55 L196.4,10.95  Q195.3,8.5,196.4,6.35 Q197.3,4.5,198.9,4.1 Q201.05,3.6,202.85,4.75 Q204.2,5.6,204.6,7.65 L202.95,7.3 M212.5,15.9  L210.85,15.85 L209,14.85 Q206.6,13.7,203.9,13.05 L204.65,11.8 Q207.6,12.5,210.3,14.25 L212.5,15.9 M203,18 L201.5,17.25  Q203.85,15.8,205.25,13.85 L206.85,14.45 Q205.45,16.4,203,18 M206.25,16 L211.55,16.5 L213.9,16.35 L215,17.75  L211.3,18.05 L205.1,17.4 L206.25,16 M212.2,18.45 L213.15,20 L208.2,20.4 L202.5,19.8 Q199,19.15,196.35,17.6 L197.9,16.6  L200.9,17.65 L202.8,18.25 Q207.5,19.15,212.2,18.45 M194.9,11.8 L198,11 L201.7,11.1 L200.75,12.3 L198,12.55  L195.25,13.35 L194.85,11.8 L194.9,11.8 M194.2,9.65 L194.1,10.95 Q194.2,12.5,194.9,13.8 L195.75,15 L194.1,15.3  Q192.6,13.45,192.55,10.95 L192.65,9.45 L194.2,9.65 M194.65,9.15 L187.35,8.6 L187.05,8.6 L186.8,8.4 Q183.4,5.1,178.1,2.7  Q172.35,0.1,167.45,0.1 Q162.15,0.1,155.5,3.6 Q149.9,6.5,146.35,10.05 L142.4,9.65 L135.9,10.05 Q131.2,11.4,126.8,14.45  Q124.65,15.95,123.4,17.2 L125,18.55 Q124.8,19.55,124.05,19.9 L120.65,17.2 Q122.5,15.4,125.35,13.4  Q131.1,9.4,136.25,8.35 Q140.15,7.55,145.85,8.3 Q149.6,4.55,155.3,1.75 Q161.85,-1.5,167.45,-1.5 Q172.65,-1.5,178.15,0.8  Q183.6,3.1,187.7,7 L194.9,7.6 L194.65,9.15 M187.2,15 L182.4,10.95 L180.5,9.35 Q172.85,3.8,167.45,3.8  Q162.75,3.8,156.5,7.7 Q151.85,10.6,148.7,13.9 L148.7,13.85 L145.8,13.1 Q140.95,12.3,135.55,14.8  Q132.85,16.05,131.15,17.45 L130.05,16.1 Q132,14.55,135.05,13.2 Q141.15,10.5,146.7,11.6 L148.25,12.05  Q151.75,8.5,156.45,5.75 Q162.55,2.2,167.45,2.2 Q172.95,2.2,180.25,7.1 Q183.2,9.05,185.35,10.95 L188.1,13.6 L192.1,12.6  L192.45,14.15 L187.5,15.35 L187.2,15 M183.5,20.3 L190.9,20.1 L194.9,19.8 L199.1,19.45 L201.2,20.35 L189.75,21.4  L167.25,22.4 L161,22.3 L150.05,21.45 L143.9,20.45 Q139.95,22.8,136.4,26.55 L135.7,27.3 L133.15,23.45 L134.5,22.55  L135.9,24.7 Q138.2,22.25,141.45,20.3 L144.25,18.8 L146.5,19.2 L152.2,19.85 Q148.75,18.7,147.2,17.7 L147.15,17.7  Q144.95,17,143.1,17.2 Q140.95,17.4,138.4,18.75 Q135.95,20.05,132.85,22.85 L130,25.6 L128.4,23.65 L126.55,21.55  L127.95,20.45 Q129.75,21.9,130.35,23.3 Q135.25,18.7,137.4,17.65 Q140.7,15.85,143.45,15.7 L147.5,16 L149.45,17.15  L149.45,17.2 Q151.15,18.2,155.85,19.45 L161,20.55 L167.65,21.1 Q176.6,21.1,187.7,18.05 L194.9,15.8 L198.6,14.25  L199.9,15.35 L197.45,16.5 L194.9,17.2 L190.45,18.35 Q184.45,19.8,183.5,20.3 M197.65,13.1 L199.35,12.6 L202.85,14.95  L201.9,16.1 L199.55,14.55 L197.65,13.1 M174.9,10.3 Q170.6,7.85,167.45,7.85 Q164.35,7.85,160.05,10.3 L160,11.05  Q160,13.15,161,14.85 L162.2,16.35 Q164.35,18.55,167.45,18.55 Q170.55,18.55,172.75,16.35 Q174.95,14.15,174.95,11.05  L174.95,10.95 L174.9,10.3 M169.85,11.75 L169.9,11.95 Q169.9,12.9,169.25,13.55 Q168.6,14.2,167.65,14.2  Q166.75,14.2,166.1,13.55 Q165.45,12.9,165.45,11.95 L165.45,11.75 Q166.7,11,167.65,11 Q168.7,11,169.85,11.75  M177.3,17.55 Q171.7,19.55,167.65,19.55 Q164.75,19.55,161,18.5 L158,17.55 Q155.2,16.55,153.2,15.55  Q155.2,13.25,158,10.95 Q163.6,6.35,167.65,6.35 Q171.7,6.35,177.3,10.95 L182.1,15.55 L177.3,17.55 M124.1,13.75  L121.4,11.55 L119.1,11.55 L119.15,22.9 L121.4,22.9 L127.45,17.95 Q127.95,18.9,128.7,19.2 L122,24.6 L117.45,24.6  L117.4,9.85 L122,9.85 L125.25,12.45 Q125.2,12.95,124.65,13.3 L124.1,13.75 M131,20.8 L126.05,15.9 L127.45,14.9  L132.4,19.95 L132.7,20.3 L131.4,21.3 L131,20.8 M-117.4,9.85 L-122,9.85 L-125.25,12.45 Q-125.2,12.95,-124.65,13.3  L-124.1,13.75 L-121.4,11.55 L-119.1,11.55 L-119.15,22.9 L-121.4,22.9 L-127.45,17.95 Q-127.95,18.9,-128.7,19.2  L-122,24.6 L-117.45,24.6 L-117.4,9.85 M-141.45,20.3 L-144.25,18.8 L-146.5,19.2 L-148.5,19.45 L-152.2,19.85 L-148.5,18.4  L-147.2,17.7 L-147.15,17.7 Q-144.95,17,-143.1,17.2 Q-140.95,17.4,-138.4,18.75 Q-135.95,20.05,-132.85,22.85 L-131,24.6  L-130,25.6 L-128.4,23.65 L-126.55,21.55 L-127.95,20.45 Q-129.75,21.9,-130.35,23.3 L-131,22.7 Q-135.4,18.65,-137.4,17.65  Q-140.7,15.85,-143.45,15.7 L-147.5,16 L-149.45,17.15 L-149.45,17.2 Q-151.15,18.2,-155.85,19.45 L-161,20.55  L-167.65,21.1 Q-176.6,21.1,-187.7,18.05 L-194.9,15.8 L-198.6,14.25 L-199.9,15.35 L-197.45,16.5 L-194.9,17.2  L-190.45,18.35 Q-184.45,19.8,-183.5,20.3 L-190.9,20.1 L-194.9,19.8 L-199.1,19.45 L-201.2,20.35 L-189.75,21.4  L-167.25,22.4 L-161,22.3 L-150.05,21.45 L-148.5,21.25 L-143.9,20.45 Q-139.95,22.8,-136.4,26.55 L-135.7,27.3  L-133.15,23.45 L-134.5,22.55 L-135.9,24.7 Q-138.2,22.25,-141.45,20.3 M-125,18.55 Q-124.8,19.55,-124.05,19.9  L-120.65,17.2 Q-122.5,15.4,-125.35,13.4 Q-128.25,11.4,-131,10.15 Q-133.7,8.85,-136.25,8.35 Q-140.15,7.55,-145.85,8.3  L-148.5,5.95 Q-151.45,3.65,-155.3,1.75 Q-161.85,-1.5,-167.45,-1.5 Q-172.65,-1.5,-178.15,0.8 Q-183.6,3.1,-187.7,7  L-194.9,7.6 L-194.65,9.15 L-187.35,8.6 L-187.05,8.6 L-186.8,8.4 Q-183.4,5.1,-178.1,2.7 Q-172.35,0.1,-167.45,0.1  Q-162.15,0.1,-155.5,3.6 Q-151.45,5.7,-148.5,8.1 L-146.35,10.05 L-142.4,9.65 L-135.9,10.05 Q-133.4,10.75,-131,11.95  Q-128.85,13,-126.8,14.45 Q-124.65,15.95,-123.4,17.2 L-125,18.55 M-130.05,16.1 L-131,15.4 Q-132.7,14.25,-135.05,13.2  Q-141.15,10.5,-146.7,11.6 L-148.25,12.05 L-148.5,11.8 Q-151.9,8.4,-156.45,5.75 Q-162.55,2.2,-167.45,2.2  Q-172.95,2.2,-180.25,7.1 Q-183.2,9.05,-185.35,10.95 L-188.1,13.6 L-192.1,12.6 L-192.45,14.15 L-187.5,15.35 L-187.2,15  L-182.4,10.95 L-180.5,9.35 Q-172.85,3.8,-167.45,3.8 Q-162.75,3.8,-156.5,7.7 Q-151.85,10.6,-148.7,13.9 L-148.7,13.85  L-145.8,13.1 Q-140.95,12.3,-135.55,14.8 Q-132.85,16.05,-131.15,17.45 L-130.05,16.1 M-131,20.8 L-126.05,15.9  L-127.45,14.9 L-132.7,20.3 L-131.4,21.3 L-131,20.8 M-160,11.05 Q-160,13.15,-161,14.85 L-162.2,16.35  Q-164.35,18.55,-167.45,18.55 Q-170.55,18.55,-172.75,16.35 Q-174.95,14.15,-174.95,11.05 L-174.95,10.95 L-174.9,10.3  Q-170.6,7.85,-167.45,7.85 Q-164.35,7.85,-160.05,10.3 L-160,11.05 M-153.2,15.55 Q-155.2,13.25,-158,10.95  Q-163.6,6.35,-167.65,6.35 Q-171.7,6.35,-177.3,10.95 L-182.1,15.55 L-177.3,17.55 Q-171.7,19.55,-167.65,19.55  Q-164.75,19.55,-161,18.5 L-158,17.55 Q-155.2,16.55,-153.2,15.55 M-169.9,11.95 Q-169.9,12.9,-169.25,13.55  Q-168.6,14.2,-167.65,14.2 Q-166.75,14.2,-166.1,13.55 Q-165.45,12.9,-165.45,11.95 L-165.45,11.75 Q-166.7,11,-167.65,11  Q-168.7,11,-169.85,11.75 L-169.9,11.95 M-199.3,5.65 Q-198.4,5.9,-197.8,7.05 Q-197.15,8.55,-198.05,10.55 L-196.4,10.95  Q-195.3,8.5,-196.4,6.35 Q-197.3,4.5,-198.9,4.1 Q-201.05,3.6,-202.85,4.75 Q-204.2,5.6,-204.6,7.65 L-202.95,7.3  Q-202.8,6.55,-202,6.1 Q-200.85,5.3,-199.3,5.65 M-198.4,7.35 Q-202.8,7.45,-205.45,8.35 L-206.25,8.6 L-206.05,10.3  L-204.95,9.85 Q-202.35,9.05,-198.35,8.95 L-198.4,7.35 M-200.75,12.3 L-198,12.55 L-195.25,13.35 L-194.85,11.8  L-194.9,11.8 L-198,11 L-201.7,11.1 L-200.75,12.3 M-193.25,6.95 L-194.1,5.1 Q-195.15,3,-197.85,1.65  Q-200.7,0.25,-203.35,0.85 Q-205.2,1.25,-206.45,2.75 Q-208.25,4.9,-208.35,8.85 Q-208.4,10.4,-207.95,11.95 L-206.45,11.5  L-206.75,8.85 Q-206.6,3.25,-203,2.4 Q-200.95,1.95,-198.6,3.1 Q-196.35,4.15,-195.5,5.8 L-194.85,7.25 L-193.25,6.95  M-192.65,9.45 L-194.2,9.65 L-194.1,10.95 Q-194.2,12.5,-194.9,13.8 L-195.75,15 L-194.1,15.3 Q-192.6,13.45,-192.55,10.95  L-192.65,9.45 M-200.9,17.65 L-202.8,18.25 Q-207.5,19.15,-212.2,18.45 L-213.15,20 L-208.2,20.4 L-202.5,19.8  Q-199,19.15,-196.35,17.6 L-197.9,16.6 L-200.9,17.65 M-200.6,12.95 Q-202.3,11.55,-202.85,9.65 L-204.4,10  Q-203.8,12.3,-202.05,13.8 L-200.6,12.95 M-197.65,13.1 L-199.35,12.6 L-202.85,14.95 L-201.9,16.1 L-199.55,14.55  L-197.65,13.1 M-209,9.8 Q-215.5,13,-217.4,18.35 Q-219.5,19.8,-221.95,20 L-223.95,19.85 L-225.65,20.7 L-219,20.5  Q-217.3,19.8,-216.25,18.9 Q-215.85,17.7,-214.75,16.2 Q-212.5,13.25,-208.75,11.4 L-209,9.8 M-215,17.75 L-211.3,18.05  L-205.1,17.4 L-206.25,16 L-211.55,16.5 L-213.9,16.35 L-215,17.75 M-213.1,18.65 L-214.65,18.35  Q-215.25,19.5,-216.5,20.55 Q-218.95,22.55,-222.55,22.55 Q-227.2,22.55,-230.65,21.5 Q-221.35,17.1,-217.9,17.7  L-217.15,16.15 Q-220.1,15.65,-226.75,18.2 L-233.15,20.95 L-234.6,21.75 L-233.1,22.4 L-230.15,23.3 L-222.55,24.15  Q-218.35,24.15,-215.35,21.5 Q-213.85,20.15,-213.1,18.65 M-203,18 L-201.5,17.25 Q-203.85,15.8,-205.25,13.85  L-206.85,14.45 Q-205.45,16.4,-203,18 M-210.85,15.85 L-209,14.85 Q-206.6,13.7,-203.9,13.05 L-204.65,11.8  Q-207.6,12.5,-210.3,14.25 L-212.5,15.9 L-210.85,15.85 M-240.25,16.05 Q-246.65,16.2,-250.8,19.75  Q-251.25,20.35,-251.3,20.85 L-251.25,22.1 Q-250.95,23.25,-249.95,23.8 L-247.8,23.95 Q-246.85,23.65,-246.5,22.65  Q-246.1,21.55,-247.15,20.8 Q-247.8,20.5,-248.65,20.5 L-249.15,21.75 Q-248.05,21.7,-247.75,22 Q-247.45,22.3,-248.2,22.7  L-249.3,22.6 L-249.85,21.85 Q-250.1,21.25,-249.6,20.6 Q-246.2,17.7,-240.6,17.4 Q-235.35,17.1,-230.85,19.15 L-229.1,18.2  Q-234.85,15.95,-240.25,16.05 M-258,22.15 Q-256.5,23.15,-255.15,22.65 L-251.9,22.2 L-252.15,21 L-256.3,21.6  Q-258.3,21.45,-258,19.65 L-259,19.4 Q-259.65,21.05,-258,22.15 "
       id="path3642"
       style="stroke:none;fill:#999999;fill-opacity:1" />
  </g>
</svg>
