<?xml version="1.0" encoding="UTF-8" standalone="no"?>
<svg
   xmlns:dc="http://purl.org/dc/elements/1.1/"
   xmlns:cc="http://creativecommons.org/ns#"
   xmlns:rdf="http://www.w3.org/1999/02/22-rdf-syntax-ns#"
   xmlns:svg="http://www.w3.org/2000/svg"
   xmlns="http://www.w3.org/2000/svg"
   xmlns:sodipodi="http://sodipodi.sourceforge.net/DTD/sodipodi-0.dtd"
   xmlns:inkscape="http://www.inkscape.org/namespaces/inkscape"
   viewBox="-219.7 0.1 439.4 33.9"
   id="svg2"
   version="1.1"
   inkscape:version="0.47 r22583"
   width="100%"
   height="100%"
   sodipodi:docname="daedric.svg">
  <metadata
     id="metadata14">
    <rdf:RDF>
      <cc:Work
         rdf:about="">
        <dc:format>image/svg+xml</dc:format>
        <dc:type
           rdf:resource="http://purl.org/dc/dcmitype/StillImage" />
      </cc:Work>
    </rdf:RDF>
  </metadata>
  <defs
     id="defs12">
    <inkscape:perspective
       sodipodi:type="inkscape:persp3d"
       inkscape:vp_x="0 : 16.95 : 1"
       inkscape:vp_y="0 : 1000 : 0"
       inkscape:vp_z="439.4 : 16.95 : 1"
       inkscape:persp3d-origin="219.7 : 11.3 : 1"
       id="perspective16" />
  </defs>
  <sodipodi:namedview
     pagecolor="#ffffff"
     bordercolor="#666666"
     borderopacity="1"
     objecttolerance="10"
     gridtolerance="10"
     guidetolerance="10"
     inkscape:pageopacity="0"
     inkscape:pageshadow="2"
     inkscape:window-width="648"
     inkscape:window-height="483"
     id="namedview10"
     showgrid="false"
     inkscape:zoom="1.2289486"
     inkscape:cx="219.7"
     inkscape:cy="16.95"
     inkscape:window-x="0"
     inkscape:window-y="0"
     inkscape:window-maximized="0"
     inkscape:current-layer="svg2" />
  <desc
     id="desc4">Created by Action Script Viewer - http://www.buraks.com/asv</desc>
  <g
     id="g6">
    <path
       fill="none"
       stroke="#000000"
       stroke-width="0.01"
       stroke-opacity="1"
       d="M207.75,19.9 Q200.9,19.95,193.7,16.8 Q187.75,14.15,180.75,8.85 L180.7,8.7 L180,8 L179.3,7.4 Q180.3,9.65,180.15,12.15  L181.6,12.95 Q181.6,11.4,180.95,9.4 Q191.05,17.15,199.15,19.75 Q209.6,23.1,219.7,19.2 L218.9,18.4 L218.25,17.8  L210.95,16.65 Q205.15,16.25,206.4,18.55 L207.05,19.25 L207.75,19.9 Q206.4,16.95,216.15,18.55 Q211.8,19.85,207.75,19.9  M187.9,17.75 L188.15,17.65 L188.85,18.35 L189.55,19.05 Q183.6,22.05,177.7,23.2 L176.3,21.8 Q179.25,17.85,180,13.9  L181.5,14.65 Q181.1,17.75,179.1,21.15 Q183.3,20,187.6,17.9 Q182.35,14.2,175.5,11.65 L175.35,10.65  Q182.15,13.2,187.85,17.7 L187.9,17.75 M175.7,4.5 L172.1,4.5 Q173.4,6,174.35,8.25 Q175.75,11.45,175.2,15.3  Q174.3,22.05,167,27.5 L165.75,28 Q164.55,28.45,164.35,28.6 L165.3,27.75 Q159.95,24.45,151.85,24.55  Q145.2,24.7,137.95,27.05 L137.05,27 L136.2,26.5 L133.8,23.5 Q133.7,23.35,134.2,22.8 Q134.65,22.25,134.9,22.55  L137.45,25.95 Q144.9,23.7,151.85,23.85 Q159.85,24.05,165.75,27.45 Q171.65,22.55,172.6,16.4 Q173.15,12.7,171.75,9.35  Q170.35,6.1,168.35,4.55 L164.25,4.55 L164.1,4.65 L162.55,5.85 L161.4,7.25 L157.3,6.8 Q157.95,4.9,158.55,4  Q154.2,3.95,149.5,6.3 Q146,8.05,143.75,10.15 Q142.3,11.5,141.5,13.35 Q140.85,14.85,140.95,15.55 L143.3,14.7 L145.4,13.8  L146.05,14.4 L146.65,15.05 Q145.95,15.3,144.15,16.1 Q142.45,16.8,141.55,16.9 L140.9,16.4 L140.3,15.7  Q139.8,15,140.5,12.95 Q141.25,10.7,142.95,8.9 Q144.6,7.15,147.45,5.5 Q149.35,4.4,150.7,3.85 Q152.65,3.15,153.3,1.9  L153.55,0.85 L163.4,1.3 Q174.15,1.5,178.8,0.1 Q175.95,4.5,175.7,4.5 M166.35,9 Q159.05,7.55,154.25,8.35  Q151.95,8.7,147.1,10.7 Q146.95,10.75,146.55,10.4 L146,10.05 Q151.2,7.85,153.75,7.5 Q158.95,6.75,166.85,8.9 L166.35,9  M164.2,9.65 L165.05,9.45 Q167.55,8.95,171.55,9.6 L171.9,10.9 L166.35,11.15 Q165.2,11.5,164.4,12.5  Q163.65,13.4,163.8,14.05 Q165.4,14.35,166.3,12.95 L166.85,11.5 L167.85,11.2 Q169.75,16.25,166.25,18.65  Q163.6,20.45,158.9,20.3 L158.9,19.7 L162.8,19.15 Q164.9,18.5,165.85,17.1 Q166.6,16,166.6,14.35 Q166.2,14.95,165.45,15.1  L163.95,14.95 Q163.35,14.65,162.85,13.5 L162.35,12.2 Q162.05,10.4,164.2,9.65 M165.4,32.65 L166.05,33.4 L166.8,34  L166.65,34 Q165.05,34,163.6,32.8 Q161.55,31.2,159.85,29.2 Q158.6,27.85,157.45,25.5 L159.45,25.85  Q159.8,26.9,160.7,28.85 L161.7,30.65 L161.85,30.8 L163.8,31.3 L163.95,31.3 L165.4,32.65 M158.65,8.65 L160.5,8.85  L160.1,9.55 Q158.2,13.7,158.3,18.3 Q158.35,21.2,159.05,24.25 L156.85,23.7 L156.15,20.95 L155.75,19.1  Q154.85,13.25,156.45,8.85 L158.65,8.65 M144.7,10.3 Q148,11.95,149.8,15.8 L149.55,16.75 Q149.15,17.4,149,17.05  Q148.2,15.35,146.8,13.7 Q145.4,12,143.95,11.1 L144.7,10.3 M150.95,11.4 L153.6,11.2 Q154.35,14.7,152.45,17.15  Q151.2,18.75,148.85,19.65 Q146.5,20.55,143.65,20.55 Q140.4,20.55,137.6,19.35 Q133.95,21.6,130,25.75 L128.4,23.75  L126.55,21.65 L127.95,20.55 Q129.75,22.05,130.35,23.45 Q135.25,18.8,137.4,17.75 L137.55,17.8 Q140.55,18.95,144,19.2  Q148.65,19.65,151.15,16.55 Q153.4,13.8,152.3,12.65 Q151.65,12.05,150.5,12.4 L149.2,13 L148.05,12.05  Q148.8,11.7,150.95,11.4 M152.8,17.95 L155.2,19 L155.3,19.7 L152.65,18.75 Q152.4,18.6,152.45,18.2  Q152.5,17.75,152.8,17.95 M139.1,12.35 Q135.5,13.8,131.15,17.55 L130.05,16.25 Q135.65,12.25,139.8,10.8  Q139.95,11.3,139.1,12.35 M140.75,9.9 L135.85,10.25 Q131.95,11.25,127.3,14.4 L123.4,17.35 L125,18.7 Q124.8,19.75,124,20  L120.65,17.35 L122.6,15.65 Q127.05,12.25,131.65,10.5 Q137.05,8.45,141.3,9.2 L140.75,9.9 M124.65,13.45 L124.1,13.85  L121.4,11.7 L119.1,11.7 L119.15,23 L121.4,23 L127.45,18.1 Q127.9,19,128.7,19.35 L122,24.7 L117.45,24.7 L117.4,10  L122,10 L125.25,12.6 L124.65,13.45 M126.05,16.05 L127.45,15.05 L132.4,20.05 L132.7,20.4 L131.4,21.4 L126.05,16.05  M-117.4,10 L-122,10 L-125.25,12.6 L-124.65,13.45 L-124.1,13.85 L-121.4,11.7 L-119.1,11.7 L-119.15,23 L-121.4,23  L-127.45,18.1 Q-127.9,19,-128.7,19.35 L-122,24.7 L-117.45,24.7 L-117.4,10 M-141.3,9.2 L-140.75,9.9 L-135.85,10.25  Q-131.95,11.25,-127.3,14.4 L-123.4,17.35 L-125,18.7 Q-124.8,19.75,-124,20 L-120.65,17.35 L-122.6,15.65  Q-127.05,12.25,-131.65,10.5 Q-137.05,8.45,-141.3,9.2 M-139.1,12.35 Q-135.5,13.8,-131.15,17.55 L-130.05,16.25  Q-135.65,12.25,-139.8,10.8 Q-139.95,11.3,-139.1,12.35 M-137.55,17.8 Q-140.55,18.95,-144,19.2  Q-148.65,19.65,-151.15,16.55 Q-153.4,13.8,-152.3,12.65 Q-151.65,12.05,-150.5,12.4 L-149.2,13 L-148.05,12.05  Q-148.8,11.7,-150.95,11.4 L-153.6,11.2 Q-154.35,14.7,-152.45,17.15 Q-151.2,18.75,-148.85,19.65  Q-146.5,20.55,-143.65,20.55 Q-140.4,20.55,-137.6,19.35 Q-133.95,21.6,-130,25.75 L-128.4,23.75 L-126.55,21.65  L-127.95,20.55 Q-129.75,22.05,-130.35,23.45 Q-135.25,18.8,-137.4,17.75 L-137.55,17.8 M-132.7,20.4 L-131.4,21.4  L-126.05,16.05 L-127.45,15.05 L-132.4,20.05 L-132.7,20.4 M-134.2,22.8 Q-134.65,22.25,-134.9,22.55 L-137.45,25.95  Q-144.9,23.7,-151.85,23.85 Q-159.85,24.05,-165.75,27.45 Q-171.65,22.55,-172.6,16.4 Q-173.15,12.7,-171.75,9.35  Q-170.35,6.1,-168.35,4.55 L-164.25,4.55 L-164.1,4.65 L-162.55,5.85 L-161.4,7.25 L-157.3,6.8 Q-157.95,4.9,-158.55,4  Q-154.2,3.95,-149.5,6.3 Q-146,8.05,-143.75,10.15 Q-142.3,11.5,-141.5,13.35 Q-140.85,14.85,-140.95,15.55 L-143.3,14.7  L-145.4,13.8 L-146.05,14.4 L-146.65,15.05 Q-145.95,15.3,-144.15,16.1 Q-142.45,16.8,-141.55,16.9 L-140.9,16.4  L-140.3,15.7 Q-139.8,15,-140.5,12.95 Q-141.25,10.7,-142.95,8.9 Q-144.6,7.15,-147.45,5.5 Q-149.35,4.4,-150.7,3.85  Q-152.65,3.15,-153.3,1.9 L-153.55,0.85 L-163.4,1.3 Q-174.15,1.5,-178.8,0.1 Q-175.95,4.5,-175.7,4.5 L-172.1,4.5  Q-173.4,6,-174.35,8.25 Q-175.75,11.45,-175.2,15.3 Q-174.3,22.05,-167,27.5 L-165.75,28 Q-164.55,28.45,-164.35,28.6  L-165.3,27.75 Q-159.95,24.45,-151.85,24.55 Q-145.2,24.7,-137.95,27.05 L-137.05,27 L-136.2,26.5 L-133.8,23.5  Q-133.7,23.35,-134.2,22.8 M-146,10.05 Q-151.2,7.85,-153.75,7.5 Q-158.95,6.75,-166.85,8.9 L-166.35,9  Q-159.05,7.55,-154.25,8.35 Q-151.95,8.7,-147.1,10.7 Q-146.95,10.75,-146.55,10.4 L-146,10.05 M-144.7,10.3  Q-148,11.95,-149.8,15.8 L-149.55,16.75 Q-149.15,17.4,-149,17.05 Q-148.2,15.35,-146.8,13.7 Q-145.4,12,-143.95,11.1  L-144.7,10.3 M-160.1,9.55 Q-158.2,13.7,-158.3,18.3 Q-158.35,21.2,-159.05,24.25 L-156.85,23.7 L-156.15,20.95  L-155.75,19.1 Q-154.85,13.25,-156.45,8.85 L-158.65,8.65 L-160.5,8.85 L-160.1,9.55 M-152.8,17.95 L-155.2,19 L-155.3,19.7  L-152.65,18.75 Q-152.4,18.6,-152.45,18.2 Q-152.5,17.75,-152.8,17.95 M-158.9,19.7 L-162.8,19.15  Q-164.9,18.5,-165.85,17.1 Q-166.6,16,-166.6,14.35 Q-166.2,14.95,-165.45,15.1 L-163.95,14.95 Q-163.35,14.65,-162.85,13.5  L-162.35,12.2 Q-162.05,10.4,-164.2,9.65 L-165.05,9.45 Q-167.55,8.95,-171.55,9.6 L-171.9,10.9 L-166.35,11.15  Q-165.2,11.5,-164.4,12.5 Q-163.65,13.4,-163.8,14.05 Q-165.4,14.35,-166.3,12.95 L-166.85,11.5 L-167.85,11.2  Q-169.75,16.25,-166.25,18.65 Q-163.6,20.45,-158.9,20.3 L-158.9,19.7 M-159.45,25.85 Q-159.8,26.9,-160.7,28.85  L-161.7,30.65 L-161.85,30.8 L-163.8,31.3 L-163.95,31.3 L-165.4,32.65 L-166.05,33.4 L-166.8,34 L-166.65,34  Q-165.05,34,-163.6,32.8 Q-161.55,31.2,-159.85,29.2 Q-158.6,27.85,-157.45,25.5 L-159.45,25.85 M-175.35,10.65  Q-182.15,13.2,-187.85,17.7 L-187.9,17.75 L-188.15,17.65 L-188.85,18.35 L-189.55,19.05 Q-183.6,22.05,-177.7,23.2  L-176.3,21.8 Q-179.25,17.85,-180,13.9 L-181.5,14.65 Q-181.1,17.75,-179.1,21.15 Q-183.3,20,-187.6,17.9  Q-182.35,14.2,-175.5,11.65 L-175.35,10.65 M-180.75,8.85 Q-187.75,14.15,-193.7,16.8 Q-200.9,19.95,-207.75,19.9  Q-211.8,19.85,-216.15,18.55 Q-206.4,16.95,-207.75,19.9 L-207.05,19.25 L-206.4,18.55 Q-205.15,16.25,-210.95,16.65  L-218.25,17.8 L-218.9,18.4 L-219.7,19.2 Q-209.6,23.1,-199.15,19.75 Q-191.05,17.15,-180.95,9.4 Q-181.6,11.4,-181.6,12.95  L-180.15,12.15 Q-180.3,9.65,-179.3,7.4 L-180,8 L-180.7,8.7 L-180.75,8.85 "
       id="path8"
       style="stroke:none;fill:#999999;fill-opacity:1" />
  </g>
</svg>
