<?xml version="1.0" encoding="UTF-8" standalone="no"?>
<svg
   xmlns:dc="http://purl.org/dc/elements/1.1/"
   xmlns:cc="http://creativecommons.org/ns#"
   xmlns:rdf="http://www.w3.org/1999/02/22-rdf-syntax-ns#"
   xmlns:svg="http://www.w3.org/2000/svg"
   xmlns="http://www.w3.org/2000/svg"
   xmlns:sodipodi="http://sodipodi.sourceforge.net/DTD/sodipodi-0.dtd"
   xmlns:inkscape="http://www.inkscape.org/namespaces/inkscape"
   viewBox="-246.1 -4.25 492.2 33.95"
   id="svg2"
   version="1.1"
   inkscape:version="0.47 r22583"
   width="100%"
   height="100%"
   sodipodi:docname="darkbrotherhood.svg">
  <metadata
     id="metadata14">
    <rdf:RDF>
      <cc:Work
         rdf:about="">
        <dc:format>image/svg+xml</dc:format>
        <dc:type
           rdf:resource="http://purl.org/dc/dcmitype/StillImage" />
      </cc:Work>
    </rdf:RDF>
  </metadata>
  <defs
     id="defs12">
    <inkscape:perspective
       sodipodi:type="inkscape:persp3d"
       inkscape:vp_x="0 : 16.975 : 1"
       inkscape:vp_y="0 : 1000 : 0"
       inkscape:vp_z="492.2 : 16.975 : 1"
       inkscape:persp3d-origin="246.1 : 11.316667 : 1"
       id="perspective16" />
  </defs>
  <sodipodi:namedview
     pagecolor="#ffffff"
     bordercolor="#666666"
     borderopacity="1"
     objecttolerance="10"
     gridtolerance="10"
     guidetolerance="10"
     inkscape:pageopacity="0"
     inkscape:pageshadow="2"
     inkscape:window-width="648"
     inkscape:window-height="483"
     id="namedview10"
     showgrid="false"
     inkscape:zoom="1.097115"
     inkscape:cx="246.1"
     inkscape:cy="16.975"
     inkscape:window-x="0"
     inkscape:window-y="0"
     inkscape:window-maximized="0"
     inkscape:current-layer="svg2" />
  <desc
     id="desc4">Created by Action Script Viewer - http://www.buraks.com/asv</desc>
  <g
     id="g6">
    <path
       fill="none"
       stroke="#000000"
       stroke-width="0.01"
       stroke-opacity="1"
       d="M171.6,-2.35 Q173.8,-0.95,175.2,1.15 Q176.35,3,176.75,5.25 L177.05,7.7 L177.55,8.55 L178.1,9.35  Q178.3,9.7,178.1,10.3 L177.85,11.2 L180,12.95 Q178.8,13.25,178.65,15.15 Q178.5,17.05,180.7,16.4  Q180.85,17.8,180.5,18.55 Q174.95,18.55,173.6,19.4 L173.9,17.95 Q174.05,17.05,173.8,16.85 Q173.05,17.5,170.5,18.1  L170.65,16.25 L173.1,15.85 Q174.35,15.5,175.05,15.05 Q175.7,14.55,176.4,12.75 Q177.1,10.9,177,9.85  Q176.9,8.85,175.6,8.85 Q174.4,8.85,173.95,9.4 Q173.4,10.1,173.2,11.75 Q173.05,13.2,173.25,13.9 L173.3,14.05  Q171.15,15.3,168.6,14.8 Q166,14.3,164.5,12.3 Q162.8,10.4,163.35,7.65 Q163.9,4.9,166.25,3.85 Q167.35,3.35,168.65,3.5  Q169.9,3.65,170.85,4.45 Q171.85,5.25,172.15,6.45 Q172.45,7.7,171.95,8.8 Q171.4,9.9,170.2,10.4 L167.95,10.25  Q167,9.75,166.75,8.7 Q166.5,7.6,167.2,6.85 L167.8,7.15 Q168.6,7.15,168.6,6.35 Q168.6,5.55,167.8,5.55 L167.25,5.8  L167.25,5.75 Q166.55,6.15,166.15,6.9 Q165.75,7.65,165.85,8.5 Q165.9,10.05,167.55,11.05 Q168.9,11.95,170.55,11.3  Q172.2,10.7,172.85,9.2 Q173.6,7.85,173.15,6.2 Q172.75,4.55,171.55,3.6 Q170.4,2.6,168.8,2.35 Q167.15,2.1,165.75,2.75  Q163.8,3.65,162.7,5.7 Q159.85,6,157.3,4.55 Q155.05,3.3,153.5,1 Q155.9,-1.85,159.5,-3.25 Q163.15,-4.6,166.8,-4.1  Q169.35,-3.75,171.6,-2.35 M213.65,24.05 Q214.7,25.35,213.95,26.6 Q212.25,29.45,205.85,28.65 L201.75,27.6 L197.45,27.4  L192.25,28.3 Q189.6,28.7,188.05,28.3 Q185.4,27.65,184.35,25.55 L183.8,23.6 L184.45,23.2 L185.45,25.25  Q187.05,27.3,189.95,27.2 Q192.3,27.15,196.55,25.4 Q200.55,23.8,202.45,23.85 Q204.8,24,206.1,24.5 L206.95,24.95  L204.4,24.75 Q201.8,24.8,201.85,25.95 Q201.9,26.75,204.35,27.25 L209.85,27.6 Q213.65,27.3,213.45,25.1 L212.5,22.95  L213.65,24.05 M216.4,27.4 L220.7,27.2 L224.85,26.5 L232.95,26.1 L246.1,27.45 Q238.7,27.7,232.65,27.4  Q229.3,27.3,225.2,27.55 Q220.85,27.85,220.8,28.35 Q220.7,29.55,225.9,28.95 L225.05,29.25 L221.35,29.7 L217.55,29.25  L213.5,28.25 L214.95,27.25 L216.4,27.4 M170.5,18.15 Q170.15,20,171,22.15 Q171.75,23.9,172.7,24.6 L182.15,23.95  Q182,24.55,182.55,26.45 Q182.95,27.9,182.15,28.2 L178.25,27.4 L173.45,27.15 Q170.35,27.15,168.75,28.15  Q168.2,28.15,167.35,26.95 Q166.55,25.8,166.45,25.15 Q167.35,23.35,166.5,20.85 Q165.75,18.75,164.5,17.7 L164.8,17.05  L164.9,17.1 Q169.15,18.1,170.35,17.9 L170.5,18.15 M162.45,17.85 L162.45,18.5 Q164,19.05,165.8,21.3 L158.75,20.95  Q155.15,19.75,153.05,16.95 Q153.25,16.75,153.5,16.95 L158.85,16.5 Q162.2,15.55,163.35,13.75 L163.9,14.55 L165,15.7  L163.95,16.5 L162.45,17.85 M175.85,24.25 L175.95,23.2 L176.7,23.2 L177,24.05 L175.85,24.25 M175.5,21.7  Q175.4,20.75,175.95,20.6 Q176.45,20.65,176.65,21.7 L175.5,21.7 M181,21.45 L179.55,21.55 Q179.45,21,180.3,20.15  Q180.9,20.6,181,21.45 M178.5,20.6 L179.1,20.45 L179.4,21.6 L178.2,21.65 Q178.1,20.85,178.5,20.6 M177.9,21.65  L176.85,21.7 Q176.7,20.85,177.2,20.5 Q177.7,20.55,177.9,21.65 M179.65,23.05 L179.65,23.75 L178.55,23.75 L178.65,23.15  L179.65,23.05 M178.1,23.15 L178.25,23.85 L177.65,24 L177.3,23.95 L177.25,23.2 L178.1,23.15 M180.05,23.05 L181.2,22.95  Q181.45,23.4,181.2,23.8 L180.7,23.7 L180.1,23.65 L180.05,23.05 M153.5,10.25 Q151.6,11.05,147.85,12.1  Q149.8,12.1,154.2,10.5 Q158.3,8.95,160.4,9.3 Q158.75,11.5,154.8,13.3 Q156.25,13,158.4,12 L161.8,10.35  Q162.2,11.6,161.05,12.8 L158.6,14.8 Q159.2,14.85,160.2,14.3 L161.75,13.45 Q161.95,14.25,159.1,15.35  Q156.2,16.5,154.15,16.25 L157.55,14.15 L160.55,11.95 Q159.45,12.35,156.5,14.1 Q153.5,15.6,151.4,15.45  Q147.1,17.1,144.05,19.3 Q139.35,22.65,135.7,27.45 L133.15,23.6 L134.45,22.65 L135.85,24.8 Q138.8,21.1,143,18.2  Q144.85,16.9,147.9,15.55 L150.6,14.45 L149.4,14.2 Q155.9,12.35,158.05,10.25 L152.35,12.55 Q148.35,13.85,145.8,13.45  Q142.8,14.35,140.6,16 Q135.6,19.65,130,25.75 L128.4,23.75 L126.55,21.65 L127.9,20.55 Q129.7,22.05,130.3,23.45  Q135.4,18.25,140,14.95 Q141.8,13.65,143.9,12.8 L142.8,11.75 L149.1,10.6 Q152.7,9.7,154.35,8.5 L148.65,9.75  L143.35,10.05 Q141.6,10.4,140.45,10.85 Q137.1,12.15,133.8,14.95 L131.15,17.55 L130.05,16.25 L133.55,13.3  Q137.6,10.15,140.5,9.25 L139.15,8.4 Q147.75,8.1,153.15,6 L146.75,6.6 Q143.15,6.85,140.7,6.5 Q137.7,6.85,135.8,7.8  Q132.65,9.35,127.7,13.5 L123.35,17.35 L125,18.7 Q124.75,19.75,124,20 L120.6,17.35 Q122.75,15.3,125.65,12.95  Q131.4,8.25,134.95,6.75 L137.8,5.75 Q136.7,5.4,135.6,4.75 L144.9,4.35 L153.1,2.8 L153.35,3.25 L153.3,3.25 L153.6,3.7  L149.25,4.65 L143.05,5.5 L147.75,5.35 L152.85,4.85 Q154.5,5,155.4,5.9 Q152.5,7.95,144.1,8.95 L150.75,8.2 L157.2,7.85  Q156.25,9.1,153.5,10.25 M124.05,13.85 L121.35,11.65 L119.1,11.65 L119.1,23 L121.35,23 L127.4,18.1  Q127.8,18.95,128.65,19.35 L122,24.7 L117.45,24.7 L117.4,10 L122,10 L125.2,12.6 L124.6,13.45 L124.05,13.85 M126.05,16.05  L127.4,15.05 L132.35,20.05 L132.65,20.4 L131.4,21.4 L126.05,16.05 M-171.6,-2.35 Q-173.8,-0.95,-175.2,1.15  Q-176.35,3,-176.75,5.25 L-177.05,7.7 L-177.55,8.55 L-178.1,9.35 Q-178.3,9.7,-178.1,10.3 L-177.85,11.2 L-180,12.95  Q-178.8,13.25,-178.65,15.15 Q-178.5,17.05,-180.7,16.4 Q-180.85,17.8,-180.5,18.55 Q-174.95,18.55,-173.6,19.4  L-173.9,17.95 Q-174.05,17.05,-173.8,16.85 Q-173.05,17.5,-170.5,18.1 L-170.65,16.25 L-173.1,15.85  Q-174.35,15.5,-175.05,15.05 Q-175.7,14.55,-176.4,12.75 Q-177.1,10.9,-177,9.85 Q-176.9,8.85,-175.6,8.85  Q-174.4,8.85,-173.95,9.4 Q-173.4,10.1,-173.2,11.75 Q-173.05,13.2,-173.25,13.9 L-173.3,14.05 Q-171.15,15.3,-168.6,14.8  Q-166,14.3,-164.5,12.3 Q-162.8,10.4,-163.35,7.65 Q-163.9,4.9,-166.25,3.85 Q-167.35,3.35,-168.65,3.5  Q-169.9,3.65,-170.85,4.45 Q-171.85,5.25,-172.15,6.45 Q-172.45,7.7,-171.95,8.8 Q-171.4,9.9,-170.2,10.4 L-167.95,10.25  Q-167,9.75,-166.75,8.7 Q-166.5,7.6,-167.2,6.85 L-167.8,7.15 Q-168.6,7.15,-168.6,6.35 Q-168.6,5.55,-167.8,5.55  L-167.25,5.8 L-167.25,5.75 Q-166.55,6.15,-166.15,6.9 Q-165.75,7.65,-165.85,8.5 Q-165.9,10.05,-167.55,11.05  Q-168.9,11.95,-170.55,11.3 Q-172.2,10.7,-172.85,9.2 Q-173.6,7.85,-173.15,6.2 Q-172.75,4.55,-171.55,3.6  Q-170.4,2.6,-168.8,2.35 Q-167.15,2.1,-165.75,2.75 Q-163.8,3.65,-162.7,5.7 Q-159.85,6,-157.3,4.55 Q-155.05,3.3,-153.5,1  Q-155.9,-1.85,-159.5,-3.25 Q-163.15,-4.6,-166.8,-4.1 Q-169.35,-3.75,-171.6,-2.35 M-117.4,10 L-122,10 L-125.2,12.6  L-124.6,13.45 L-124.05,13.85 L-121.35,11.65 L-119.1,11.65 L-119.1,23 L-121.35,23 L-127.4,18.1  Q-127.8,18.95,-128.65,19.35 L-122,24.7 L-117.45,24.7 L-117.4,10 M-139.15,8.4 Q-147.75,8.1,-153.15,6 L-146.75,6.6  Q-143.15,6.85,-140.7,6.5 Q-137.7,6.85,-135.8,7.8 Q-132.65,9.35,-127.7,13.5 L-123.35,17.35 L-125,18.7  Q-124.75,19.75,-124,20 L-120.6,17.35 Q-122.75,15.3,-125.65,12.95 Q-131.4,8.25,-134.95,6.75 L-137.8,5.75  Q-136.7,5.4,-135.6,4.75 L-144.9,4.35 L-153.1,2.8 L-153.35,3.25 L-153.3,3.25 L-153.6,3.7 L-149.25,4.65 L-143.05,5.5  L-147.75,5.35 L-152.85,4.85 Q-154.5,5,-155.4,5.9 Q-152.5,7.95,-144.1,8.95 L-150.75,8.2 L-157.2,7.85  Q-156.25,9.1,-153.5,10.25 Q-151.6,11.05,-147.85,12.1 Q-149.8,12.1,-154.2,10.5 Q-158.3,8.95,-160.4,9.3  Q-158.75,11.5,-154.8,13.3 Q-156.25,13,-158.4,12 L-161.8,10.35 Q-162.2,11.6,-161.05,12.8 L-158.6,14.8  Q-159.2,14.85,-160.2,14.3 L-161.75,13.45 Q-161.95,14.25,-159.1,15.35 Q-156.2,16.5,-154.15,16.25 L-157.55,14.15  L-160.55,11.95 Q-159.45,12.35,-156.5,14.1 Q-153.5,15.6,-151.4,15.45 Q-147.1,17.1,-144.05,19.3  Q-139.35,22.65,-135.7,27.45 L-133.15,23.6 L-134.45,22.65 L-135.85,24.8 Q-138.8,21.1,-143,18.2  Q-144.85,16.9,-147.9,15.55 L-150.6,14.45 L-149.4,14.2 Q-155.9,12.35,-158.05,10.25 L-152.35,12.55  Q-148.35,13.85,-145.8,13.45 Q-142.8,14.35,-140.6,16 Q-135.6,19.65,-130,25.75 L-128.4,23.75 L-126.55,21.65 L-127.9,20.55  Q-129.7,22.05,-130.3,23.45 Q-135.4,18.25,-140,14.95 Q-141.8,13.65,-143.9,12.8 L-142.8,11.75 L-149.1,10.6  Q-152.7,9.7,-154.35,8.5 L-148.65,9.75 L-143.35,10.05 Q-141.6,10.4,-140.45,10.85 Q-137.1,12.15,-133.8,14.95  L-131.15,17.55 L-130.05,16.25 L-133.55,13.3 Q-137.6,10.15,-140.5,9.25 L-139.15,8.4 M-132.65,20.4 L-131.4,21.4  L-126.05,16.05 L-127.4,15.05 L-132.35,20.05 L-132.65,20.4 M-153.5,16.95 L-158.85,16.5 Q-162.2,15.55,-163.35,13.75  L-163.9,14.55 L-165,15.7 L-163.95,16.5 L-162.45,17.85 L-162.45,18.5 Q-164,19.05,-165.8,21.3 L-158.75,20.95  Q-155.15,19.75,-153.05,16.95 Q-153.25,16.75,-153.5,16.95 M-179.1,20.45 L-179.4,21.6 L-178.2,21.65  Q-178.1,20.85,-178.5,20.6 L-179.1,20.45 M-177.9,21.65 L-176.85,21.7 Q-176.7,20.85,-177.2,20.5  Q-177.7,20.55,-177.9,21.65 M-181,21.45 L-179.55,21.55 Q-179.45,21,-180.3,20.15 Q-180.9,20.6,-181,21.45 M-181.2,22.95  Q-181.45,23.4,-181.2,23.8 L-180.7,23.7 L-180.1,23.65 L-180.05,23.05 L-181.2,22.95 M-178.1,23.15 L-178.25,23.85  L-177.65,24 L-177.3,23.95 L-177.25,23.2 L-178.1,23.15 M-179.65,23.05 L-179.65,23.75 L-178.55,23.75 L-178.65,23.15  L-179.65,23.05 M-175.85,24.25 L-175.95,23.2 L-176.7,23.2 L-177,24.05 L-175.85,24.25 M-175.5,21.7  Q-175.4,20.75,-175.95,20.6 Q-176.45,20.65,-176.65,21.7 L-175.5,21.7 M-182.15,23.95 Q-182,24.55,-182.55,26.45  Q-182.95,27.9,-182.15,28.2 L-178.25,27.4 L-173.45,27.15 Q-170.35,27.15,-168.75,28.15 Q-168.2,28.15,-167.35,26.95  Q-166.55,25.8,-166.45,25.15 Q-167.35,23.35,-166.5,20.85 Q-165.75,18.75,-164.5,17.7 L-164.8,17.05 L-164.9,17.1  Q-169.15,18.1,-170.35,17.9 L-170.5,18.15 Q-170.15,20,-171,22.15 Q-171.75,23.9,-172.7,24.6 L-182.15,23.95 M-184.45,23.2  L-185.45,25.25 Q-187.05,27.3,-189.95,27.2 Q-192.3,27.15,-196.55,25.4 Q-200.55,23.8,-202.45,23.85 Q-204.8,24,-206.1,24.5  L-206.95,24.95 L-204.4,24.75 Q-201.8,24.8,-201.85,25.95 Q-201.9,26.75,-204.35,27.25 L-209.85,27.6  Q-213.65,27.3,-213.45,25.1 L-212.5,22.95 L-213.65,24.05 Q-214.7,25.35,-213.95,26.6 Q-212.25,29.45,-205.85,28.65  L-201.75,27.6 L-197.45,27.4 L-192.25,28.3 Q-189.6,28.7,-188.05,28.3 Q-185.4,27.65,-184.35,25.55 L-183.8,23.6  L-184.45,23.2 M-232.95,26.1 L-246.1,27.45 Q-238.7,27.7,-232.65,27.4 Q-229.3,27.3,-225.2,27.55  Q-220.85,27.85,-220.8,28.35 Q-220.7,29.55,-225.9,28.95 L-225.05,29.25 L-221.35,29.7 L-217.55,29.25 L-213.5,28.25  L-214.95,27.25 L-216.4,27.4 L-220.7,27.2 L-224.85,26.5 L-232.95,26.1 "
       id="path8"
       style="stroke:none;fill:#999999;fill-opacity:1" />
  </g>
</svg>
