<?xml version="1.0" encoding="UTF-8" standalone="no"?>
<svg
   xmlns:dc="http://purl.org/dc/elements/1.1/"
   xmlns:cc="http://creativecommons.org/ns#"
   xmlns:rdf="http://www.w3.org/1999/02/22-rdf-syntax-ns#"
   xmlns:svg="http://www.w3.org/2000/svg"
   xmlns="http://www.w3.org/2000/svg"
   xmlns:sodipodi="http://sodipodi.sourceforge.net/DTD/sodipodi-0.dtd"
   xmlns:inkscape="http://www.inkscape.org/namespaces/inkscape"
   viewBox="-260.9 0 521.8 29.5"
   id="svg2"
   version="1.1"
   inkscape:version="0.47 r22583"
   width="100%"
   height="100%"
   sodipodi:docname="main.svg">
  <metadata
     id="metadata14">
    <rdf:RDF>
      <cc:Work
         rdf:about="">
        <dc:format>image/svg+xml</dc:format>
        <dc:type
           rdf:resource="http://purl.org/dc/dcmitype/StillImage" />
      </cc:Work>
    </rdf:RDF>
  </metadata>
  <defs
     id="defs12">
    <inkscape:perspective
       sodipodi:type="inkscape:persp3d"
       inkscape:vp_x="0 : 14.75 : 1"
       inkscape:vp_y="0 : 1000 : 0"
       inkscape:vp_z="521.8 : 14.75 : 1"
       inkscape:persp3d-origin="260.9 : 9.8333333 : 1"
       id="perspective16" />
  </defs>
  <sodipodi:namedview
     pagecolor="#ffffff"
     bordercolor="#666666"
     borderopacity="1"
     objecttolerance="10"
     gridtolerance="10"
     guidetolerance="10"
     inkscape:pageopacity="0"
     inkscape:pageshadow="2"
     inkscape:window-width="648"
     inkscape:window-height="483"
     id="namedview10"
     showgrid="false"
     inkscape:zoom="1.0348793"
     inkscape:cx="260.9"
     inkscape:cy="14.75"
     inkscape:window-x="0"
     inkscape:window-y="0"
     inkscape:window-maximized="0"
     inkscape:current-layer="g6" />
  <desc
     id="desc4">Created by Action Script Viewer - http://www.buraks.com/asv</desc>
  <g
     id="g6">
    <path
       fill="none"
       stroke="#000000"
       stroke-width="0.01"
       stroke-opacity="1"
       d="M255.25,23.45 L260.9,24.1 L256.45,24.2 L247.45,24.05 Q244.25,23.9,240,24.2 Q235.65,24.5,235.6,24.95  Q235.5,26.2,240.7,25.6 L239.85,25.9 L236.15,26.35 L232.35,25.9 L228.3,24.9 L229.7,23.85 L231.2,24.05 L235.45,23.85  L239.6,23.1 L247.75,22.75 L255.25,23.45 M228.25,21.75 L227.3,19.6 L228.45,20.65 Q229.5,21.95,228.75,23.25  Q227.1,26.05,220.65,25.25 L216.5,24.2 L212.25,24.05 L207.05,24.95 Q204.4,25.3,202.8,24.9 Q200.15,24.3,199.1,22.2  Q198.55,21.15,198.55,20.25 L199.25,19.8 Q199.45,20.85,200.25,21.85 Q201.85,23.9,204.75,23.85 Q207.1,23.8,211.3,22.05  Q215.35,20.45,217.25,20.5 Q219.6,20.6,220.9,21.1 L221.75,21.6 L219.15,21.4 Q216.6,21.45,216.65,22.6  Q216.7,23.4,219.15,23.9 L224.65,24.25 Q228.45,23.95,228.25,21.75 M202.75,16.65 Q201.75,18.25,199.9,19  Q201.65,16.7,200.5,15.7 L199.9,16.8 Q199.05,17.95,198.1,18.2 Q198.3,17.6,197.95,16.8 L197.6,16.1 L189.3,16.1  Q181,16.5,181,18.7 Q181,20.9,186.6,21.5 L192.2,21.7 L195.45,19.6 L195.4,21.7 Q194.85,24.05,192.25,25.25 L188.75,23.9  L184.4,22.4 L177.55,22.95 Q175.1,23.35,173.1,24.65 Q172.05,25.35,171.55,25.9 Q171.8,22.85,173.25,21.85  Q171.45,21.45,168.4,23.3 L165.75,25.2 L166.55,23 Q167.65,20.65,169,19.75 Q167.15,18.8,163,21.9 L159.2,25.2  Q160,23.5,161.3,21.65 Q163.9,17.95,166.3,17.05 Q161.85,17.5,158.1,20.2 Q154.95,22.5,150.05,28.3  Q152.85,22.35,156.6,18.7 Q161.25,14.15,168.5,11.7 L159.25,13.05 L160.75,10.8 Q168.65,10.3,171.15,9.15  Q170.85,9.3,164.9,6.8 Q157.65,4.85,151,7.55 L149.7,6.7 Q151.5,5.35,156.35,4.75 Q163,3.9,169.4,6.1 Q160.85,1.95,151,5  Q144.85,6.9,138.9,11.35 L137.8,10.45 Q143.55,6.5,148.2,4.75 Q156.4,1.65,164.7,3.2 L161.4,2.3 L148.8,1.65 L144.1,2.3  Q138.6,3.35,134.7,5.7 L134.5,5.8 L134.35,4.45 Q136.35,3.2,138.6,2.3 Q145.45,-0.45,154.9,0.1 Q161.3,0.45,166,2.3  Q171.1,4.3,174.2,8 L177.9,7.2 L182,7.05 Q184.5,11.55,188.7,12.55 L197.7,12.3 L199.2,10.95 Q200.4,9.7,201.35,9.75  Q202.05,9.8,202.7,10.95 Q203.35,12,203.5,13.2 Q203.75,15,202.75,16.65 M202,13.8 L201.75,13.1 Q201.55,12.8,201.25,12.8  Q200.95,12.8,200.7,13.1 L200.5,13.8 Q200.5,14.75,201.25,14.75 L201.75,14.5 L202,13.8 M183.05,12.15  Q182.35,10.85,181.2,10.25 Q178.1,8.7,174.5,9.9 Q171.05,11,169.8,13.45 Q168.75,15.45,169.45,17.6 Q170.05,19.7,172.1,20.8  L174.15,21.3 L175.5,21.1 Q177.2,20.6,178.1,18.9 Q178.8,17.6,178.35,16.15 Q177.9,14.7,176.6,14 L174.3,13.8  Q173.1,14.15,172.55,15.25 Q172.05,16.2,172.35,17.15 Q172.65,18.15,173.6,18.6 L175.15,18.75 Q175.95,18.55,176.35,17.75  Q176.7,17.2,176.5,16.4 Q176.25,15.7,175.65,15.4 L175.25,16.15 L175.7,16.65 L175.65,17.35 Q175.4,17.9,174.9,17.95  L173.95,17.9 Q173.35,17.55,173.15,16.9 Q172.95,16.25,173.25,15.65 Q173.65,14.85,174.55,14.6 L176.2,14.75  Q177.2,15.3,177.55,16.4 Q177.9,17.5,177.4,18.55 Q176.65,19.95,175.25,20.3 Q173.85,20.75,172.5,20.05  Q170.8,19.2,170.2,17.35 Q169.65,15.45,170.55,13.8 Q171.3,12.35,173.6,11.65 Q175.6,11,176.2,11.35 L177.7,12.5  L179.35,13.65 L181.95,13.7 L183.5,13.35 L183.05,12.15 M180,11.25 L180.6,11.4 L180.9,11.9 Q181.05,12.65,180.25,12.85  Q179.45,12.95,179.35,12.15 Q179.25,11.8,179.45,11.55 Q179.65,11.3,180,11.25 M155.7,9.8 L155.65,9.85 L153.85,9.35  L154,9.2 Q157.2,7.2,159.9,7.6 L160,7.6 L160,7.7 Q160.25,9.3,159.85,10.5 L158.2,13.15 Q156.7,15,153.35,16.15 L154,14.5  Q155.4,13.85,156.7,12.8 Q159.35,10.65,158.8,8.5 Q158,8.4,156.9,8.95 Q156.15,9.35,155.7,9.8 M152.35,11.8 L153.9,12.45  L153.85,12.55 L152.6,16.05 Q151.45,19.5,148.35,21.35 L148.25,19.35 Q149.8,18.25,150.75,16 L151.1,15 L152.3,11.9  L152.35,11.8 M143.3,6.45 L141.15,6.3 L141.05,6.3 L139.9,4.55 L140.1,4.5 Q142.95,4.1,145.6,5.05 L143.3,6.45 M147.9,6.55  Q151.8,9.65,157.7,10.75 L156.55,12.4 Q150.75,11.05,146.4,7.5 L147.9,6.55 M148.3,9.55 Q143.6,13.55,139.15,20.9  Q136.95,24.55,135.65,27.4 L133.45,24.15 L134.45,23.25 L135.55,24.85 L139.15,18.85 Q143.15,12.5,147.2,8.75 L148.3,9.55  M150.8,14.6 L150.45,16.15 L150.35,16.2 L145.85,16.65 L144.75,17 Q143.25,17.65,142.5,19.05 Q142.05,19.9,142.15,21.25  L142.2,21.4 L140.6,21.4 L140.6,21.3 Q140.5,19.6,141.05,18.4 Q142,16.65,143.7,15.8 L144.85,15.25 L150.65,14.6  L150.8,14.6 M144,14.35 L144.7,15.05 L143.4,15.75 L143.35,15.7 L143,15.45 L144,14.35 M146.2,16.8  Q147.45,18.6,147.65,20.1 L147.7,21.1 L147.6,21.85 Q147.4,23.95,146,27.05 L144.6,29.5 L143.15,27.45  Q142.1,25.9,141.6,24.75 L141.15,23.7 L141.1,23.55 L142.75,23.6 L142.85,23.8 L142.95,24.1 L144.35,26.55  Q144.5,26.7,144.6,26.45 Q145.65,24.45,146.05,22.45 L146.15,20.75 Q146.05,18.9,145,17.45 L144.9,17.35 L146.1,16.7  L146.2,16.8 M145.75,20.85 L145.75,22.7 L145.65,22.75 L143.95,23.1 L142.5,23.35 L141.6,23.4 L141.15,23.4 L138.55,22.95  L139.4,21.35 L140.8,21.6 L142.1,21.6 L143.6,21.4 L145.6,20.9 L145.75,20.85 M137.85,5.1 L137.9,5.15  Q138.75,5.55,138.9,6.6 L138.95,6.7 L138.85,6.75 Q137.15,7.35,135.65,8.6 Q133.25,10.6,133,13.3 L131.15,14.65  Q131.1,13.45,131.45,11.95 Q132.05,9.6,133.5,8 L135.35,6.6 L137.8,5.1 L137.85,5.1 M137.3,4.7 L138.85,4.05 L139.6,4.65  L140.7,6.15 L141.2,7.5 L139.9,8.05 L139.35,6.5 Q138.85,5.7,138.15,5.2 L138.05,5.15 L137.3,4.7 M134.05,3.65  Q134.05,5.05,134.45,6.65 L134.5,6.7 L133.3,7.65 L133.25,7.45 Q132.7,5.6,132.75,3.8 L132.75,2 L135.55,2.5 L136.45,2.8  L134.85,3.75 L134.05,3.65 M135.55,9.05 L135.65,9.2 Q136.25,10.25,137.4,11.05 L139.95,12.3 L141,12.7 L142.5,13.5  L141.6,14.6 L139.6,13.7 L136.9,12.35 Q135.5,11.45,134.65,10.25 L134.6,10.2 L135.55,9.05 M139.85,11.95 L140,10.85  L141.35,10.25 L141.15,12.3 L141.1,12.45 L139.85,12.05 L139.85,11.95 M132.7,7.15 Q128.45,10.7,123.4,17.3 L125,18.65  Q124.8,19.65,124.05,19.95 L120.65,17.3 Q128.65,8.85,132.45,5.8 L132.7,7.15 M124.55,12.05 L123.95,12.9 L123.45,13.35  L121.4,11.6 L119.1,11.6 L119.15,22.95 L121.4,22.95 L127.45,18.05 Q127.9,18.95,128.7,19.3 L122,24.65 L117.45,24.65  L117.4,9.9 L122,9.9 L124.55,12.05 M130.1,16.2 L135.75,11.9 L137.05,12.8 L132.9,16.15 L131.15,17.5 L130.1,16.2  M130.35,23.85 L134.5,21.05 L135.4,21.95 Q132.95,24.05,130,25.7 L128.4,23.7 L126.55,21.6 L127.95,20.5  Q129.55,21.85,130.35,23.85 M127.05,14.3 L133.35,20.95 L132.1,21.95 L125.65,15.3 L127.05,14.3 M139.45,13.9 L140.75,14.35  L140.7,14.45 L140.45,15.35 Q139.65,17.65,137.85,19.75 L137.75,19.85 L137.65,19.75 L137.35,19.25 L137.1,18.8  L137.05,18.7 L137.1,18.6 Q138.45,16.95,139.2,15 L139.45,13.9 M133.5,16.55 Q134.9,19.3,137.3,20.55 L137.55,20.65  L136.65,22.2 Q133,19.75,131.9,17.55 L133.5,16.55 M-117.4,9.9 L-122,9.9 L-124.55,12.05 L-123.95,12.9 L-123.45,13.35  L-121.4,11.6 L-119.1,11.6 L-119.15,22.95 L-121.4,22.95 L-127.45,18.05 Q-127.9,18.95,-128.7,19.3 L-122,24.65  L-117.45,24.65 L-117.4,9.9 M-134.5,5.8 L-134.35,4.45 Q-142.35,-0.6,-154.9,0.1 Q-168.2,0.85,-174.2,8 L-177.9,7.2  L-182,7.05 Q-184.5,11.55,-188.7,12.55 L-197.7,12.3 L-199.2,10.95 Q-200.4,9.7,-201.35,9.75 Q-202.05,9.8,-202.7,10.95  Q-203.35,12,-203.5,13.2 Q-203.75,15,-202.75,16.65 Q-201.75,18.25,-199.9,19 Q-201.65,16.7,-200.5,15.7 L-199.9,16.8  Q-199.05,17.95,-198.1,18.2 Q-198.3,17.6,-197.95,16.8 L-197.6,16.1 L-189.3,16.1 Q-181,16.5,-181,18.7  Q-181,20.9,-186.6,21.5 L-192.2,21.7 L-195.45,19.6 L-195.4,21.7 Q-194.85,24.05,-192.25,25.25 L-188.75,23.9 L-184.4,22.4  L-177.55,22.95 Q-175.1,23.35,-173.1,24.65 Q-172.05,25.35,-171.55,25.9 Q-171.8,22.85,-173.25,21.85  Q-171.45,21.45,-168.4,23.3 L-165.75,25.2 L-166.55,23 Q-167.65,20.65,-169,19.75 Q-167.15,18.8,-163,21.9 L-159.2,25.2  Q-160,23.5,-161.3,21.65 Q-163.9,17.95,-166.3,17.05 Q-161.85,17.5,-158.1,20.2 Q-154.95,22.5,-150.05,28.3  Q-152.85,22.35,-156.6,18.7 Q-161.25,14.15,-168.5,11.7 L-159.25,13.05 L-160.75,10.8 Q-168.65,10.3,-171.15,9.15  Q-170.85,9.3,-164.9,6.8 Q-157.65,4.85,-151,7.55 L-149.7,6.7 Q-151.5,5.35,-156.35,4.75 Q-163,3.9,-169.4,6.1  Q-160.85,1.95,-151,5 Q-144.85,6.9,-138.9,11.35 L-137.8,10.45 Q-143.55,6.5,-148.2,4.75 Q-156.4,1.65,-164.7,3.2  Q-157.6,0.85,-148.8,1.65 Q-140.2,2.4,-134.7,5.7 L-134.5,5.8 M-132.75,2 L-135.55,2.5 L-136.45,2.8 L-134.85,3.75  L-134.05,3.65 Q-134.05,5.05,-134.45,6.65 L-134.5,6.7 L-133.3,7.65 L-133.25,7.45 Q-132.7,5.6,-132.75,3.8 L-132.75,2  M-137.85,5.1 L-137.9,5.15 Q-138.75,5.55,-138.9,6.6 L-138.95,6.7 L-138.85,6.75 Q-137.15,7.35,-135.65,8.6  Q-133.25,10.6,-133,13.3 L-131.15,14.65 Q-131.1,13.45,-131.45,11.95 Q-132.05,9.6,-133.5,8 L-135.35,6.6 L-137.8,5.1  L-137.85,5.1 M-140.1,4.5 Q-142.95,4.1,-145.6,5.05 L-143.3,6.45 L-141.15,6.3 L-141.05,6.3 L-139.9,4.55 L-140.1,4.5  M-138.85,4.05 L-139.6,4.65 L-140.7,6.15 L-141.2,7.5 L-139.9,8.05 L-139.35,6.5 Q-138.85,5.7,-138.15,5.2 L-138.05,5.15  L-137.3,4.7 L-138.85,4.05 M-141.35,10.25 L-141.15,12.3 L-141.1,12.45 L-139.85,12.05 L-139.85,11.95 L-140,10.85  L-141.35,10.25 M-139.95,12.3 L-141,12.7 L-142.5,13.5 L-141.6,14.6 L-139.6,13.7 L-136.9,12.35  Q-135.5,11.45,-134.65,10.25 L-134.6,10.2 L-135.55,9.05 L-135.65,9.2 Q-136.25,10.25,-137.4,11.05 L-139.95,12.3  M-132.7,7.15 Q-128.45,10.7,-123.4,17.3 L-125,18.65 Q-124.8,19.65,-124.05,19.95 L-120.65,17.3 Q-128.65,8.85,-132.45,5.8  L-132.7,7.15 M-133.5,16.55 Q-134.9,19.3,-137.3,20.55 L-137.55,20.65 L-136.65,22.2 Q-133,19.75,-131.9,17.55  L-133.5,16.55 M-140.75,14.35 L-140.7,14.45 L-140.45,15.35 Q-139.65,17.65,-137.85,19.75 L-137.75,19.85 L-137.65,19.75  L-137.35,19.25 L-137.1,18.8 L-137.05,18.7 L-137.1,18.6 Q-138.45,16.95,-139.2,15 L-139.45,13.9 L-140.75,14.35  M-140.6,21.3 Q-140.5,19.6,-141.05,18.4 Q-142,16.65,-143.7,15.8 L-144.85,15.25 L-150.65,14.6 L-150.8,14.6 L-150.45,16.15  L-150.35,16.2 L-145.85,16.65 L-144.75,17 Q-143.25,17.65,-142.5,19.05 Q-142.05,19.9,-142.15,21.25 L-142.2,21.4  L-140.6,21.4 L-140.6,21.3 M-140.8,21.6 L-142.1,21.6 L-143.6,21.4 L-145.6,20.9 L-145.75,20.85 L-145.75,22.7  L-145.65,22.75 L-143.95,23.1 L-142.5,23.35 L-141.6,23.4 L-141.15,23.4 L-138.55,22.95 L-139.4,21.35 L-140.8,21.6  M-141.1,23.55 L-142.75,23.6 L-142.85,23.8 L-142.95,24.1 L-144.35,26.55 Q-144.5,26.7,-144.6,26.45  Q-145.65,24.45,-146.05,22.45 L-146.15,20.75 Q-146.05,18.9,-145,17.45 L-144.9,17.35 L-146.1,16.7 L-146.2,16.8  Q-147.45,18.6,-147.65,20.1 L-147.7,21.1 L-147.6,21.85 Q-147.4,23.95,-146,27.05 L-144.6,29.5 L-143.15,27.45  Q-142.1,25.9,-141.6,24.75 L-141.15,23.7 L-141.1,23.55 M-135.4,21.95 Q-132.95,24.05,-130,25.7 L-128.4,23.7 L-126.55,21.6  L-127.95,20.5 Q-129.55,21.85,-130.35,23.85 L-134.5,21.05 L-135.4,21.95 M-134.45,23.25 L-135.55,24.85 L-139.15,18.85  Q-143.15,12.5,-147.2,8.75 L-148.3,9.55 Q-143.6,13.55,-139.15,20.9 Q-136.95,24.55,-135.65,27.4 L-133.45,24.15  L-134.45,23.25 M-132.1,21.95 L-125.65,15.3 L-127.05,14.3 L-133.35,20.95 L-132.1,21.95 M-132.9,16.15 L-131.15,17.5  L-130.1,16.2 L-135.75,11.9 L-137.05,12.8 L-132.9,16.15 M-147.9,6.55 Q-151.8,9.65,-157.7,10.75 L-156.55,12.4  Q-150.75,11.05,-146.4,7.5 L-147.9,6.55 M-159.85,10.5 L-158.2,13.15 Q-156.7,15,-153.35,16.15 L-154,14.5  Q-155.4,13.85,-156.7,12.8 Q-159.35,10.65,-158.8,8.5 Q-158,8.4,-156.9,8.95 Q-156.15,9.35,-155.7,9.8 L-155.65,9.85  L-153.85,9.35 L-154,9.2 Q-157.2,7.2,-159.9,7.6 L-160,7.6 L-160,7.7 Q-160.25,9.3,-159.85,10.5 M-152.35,11.8  L-153.9,12.45 L-153.85,12.55 L-152.6,16.05 Q-151.45,19.5,-148.35,21.35 L-148.25,19.35 Q-149.8,18.25,-150.75,16  L-151.1,15 L-152.3,11.9 L-152.35,11.8 M-144,14.35 L-144.7,15.05 L-143.4,15.75 L-143.35,15.7 L-143,15.45 L-144,14.35  M-174.5,9.9 Q-171.05,11,-169.8,13.45 Q-168.75,15.45,-169.45,17.6 Q-170.05,19.7,-172.1,20.8 L-174.15,21.3 L-175.5,21.1  Q-177.2,20.6,-178.1,18.9 Q-178.8,17.6,-178.35,16.15 Q-177.9,14.7,-176.6,14 L-174.3,13.8 Q-173.1,14.15,-172.55,15.25  Q-172.05,16.2,-172.35,17.15 Q-172.65,18.15,-173.6,18.6 L-175.15,18.75 Q-175.95,18.55,-176.35,17.75  Q-176.7,17.2,-176.5,16.4 Q-176.25,15.7,-175.65,15.4 L-175.25,16.15 L-175.7,16.65 L-175.65,17.35  Q-175.4,17.9,-174.9,17.95 L-173.95,17.9 Q-173.35,17.55,-173.15,16.9 Q-172.95,16.25,-173.25,15.65  Q-173.65,14.85,-174.55,14.6 L-176.2,14.75 Q-177.2,15.3,-177.55,16.4 Q-177.9,17.5,-177.4,18.55  Q-176.65,19.95,-175.25,20.3 Q-173.85,20.75,-172.5,20.05 Q-170.8,19.2,-170.2,17.35 Q-169.65,15.45,-170.55,13.8  Q-171.3,12.35,-173.6,11.65 Q-175.6,11,-176.2,11.35 L-177.7,12.5 L-179.35,13.65 L-181.95,13.7 L-183.5,13.35  L-183.05,12.15 Q-182.35,10.85,-181.2,10.25 Q-178.1,8.7,-174.5,9.9 M-180,11.25 L-180.6,11.4 L-180.9,11.9  Q-181.05,12.65,-180.25,12.85 Q-179.45,12.95,-179.35,12.15 Q-179.25,11.8,-179.45,11.55 Q-179.65,11.3,-180,11.25  M-202,13.8 L-201.75,13.1 Q-201.55,12.8,-201.25,12.8 Q-200.95,12.8,-200.7,13.1 L-200.5,13.8 Q-200.5,14.75,-201.25,14.75  L-201.75,14.5 L-202,13.8 M-199.25,19.8 Q-199.45,20.85,-200.25,21.85 Q-201.85,23.9,-204.75,23.85  Q-207.1,23.8,-211.3,22.05 Q-215.35,20.45,-217.25,20.5 Q-219.6,20.6,-220.9,21.1 L-221.75,21.6 L-219.15,21.4  Q-216.6,21.45,-216.65,22.6 Q-216.7,23.4,-219.15,23.9 L-224.65,24.25 Q-228.45,23.95,-228.25,21.75 L-227.3,19.6  L-228.45,20.65 Q-229.5,21.95,-228.75,23.25 Q-227.1,26.05,-220.65,25.25 L-216.5,24.2 L-212.25,24.05 L-207.05,24.95  Q-204.4,25.3,-202.8,24.9 Q-200.15,24.3,-199.1,22.2 Q-198.55,21.15,-198.55,20.25 L-199.25,19.8 M-239.6,23.1  L-247.75,22.75 L-255.25,23.45 L-260.9,24.1 L-256.45,24.2 L-247.45,24.05 Q-244.25,23.9,-240,24.2  Q-235.65,24.5,-235.6,24.95 Q-235.5,26.2,-240.7,25.6 L-239.85,25.9 L-236.15,26.35 L-232.35,25.9 L-228.3,24.9  L-229.7,23.85 L-231.2,24.05 L-235.45,23.85 L-239.6,23.1 "
       id="path8"
       style="stroke:none;fill:#999999;fill-opacity:1" />
  </g>
</svg>
