<?xml version="1.0" encoding="UTF-8" standalone="no"?>
<svg
   xmlns:dc="http://purl.org/dc/elements/1.1/"
   xmlns:cc="http://creativecommons.org/ns#"
   xmlns:rdf="http://www.w3.org/1999/02/22-rdf-syntax-ns#"
   xmlns:svg="http://www.w3.org/2000/svg"
   xmlns="http://www.w3.org/2000/svg"
   xmlns:sodipodi="http://sodipodi.sourceforge.net/DTD/sodipodi-0.dtd"
   xmlns:inkscape="http://www.inkscape.org/namespaces/inkscape"
   viewBox="-222.2 6.4 444.4 21.05"
   id="svg2"
   version="1.1"
   inkscape:version="0.47 r22583"
   width="100%"
   height="100%"
   sodipodi:docname="misc.svg">
  <metadata
     id="metadata14">
    <rdf:RDF>
      <cc:Work
         rdf:about="">
        <dc:format>image/svg+xml</dc:format>
        <dc:type
           rdf:resource="http://purl.org/dc/dcmitype/StillImage" />
      </cc:Work>
    </rdf:RDF>
  </metadata>
  <defs
     id="defs12">
    <inkscape:perspective
       sodipodi:type="inkscape:persp3d"
       inkscape:vp_x="0 : 10.525 : 1"
       inkscape:vp_y="0 : 1000 : 0"
       inkscape:vp_z="444.4 : 10.525 : 1"
       inkscape:persp3d-origin="222.2 : 7.0166667 : 1"
       id="perspective16" />
  </defs>
  <sodipodi:namedview
     pagecolor="#ffffff"
     bordercolor="#666666"
     borderopacity="1"
     objecttolerance="10"
     gridtolerance="10"
     guidetolerance="10"
     inkscape:pageopacity="0"
     inkscape:pageshadow="2"
     inkscape:window-width="648"
     inkscape:window-height="483"
     id="namedview10"
     showgrid="false"
     inkscape:zoom="1.2151215"
     inkscape:cx="222.2"
     inkscape:cy="10.525"
     inkscape:window-x="0"
     inkscape:window-y="0"
     inkscape:window-maximized="0"
     inkscape:current-layer="svg2" />
  <desc
     id="desc4">Created by Action Script Viewer - http://www.buraks.com/asv</desc>
  <g
     id="g6">
    <path
       fill="none"
       stroke="#000000"
       stroke-width="0.01"
       stroke-opacity="1"
       d="M222.2,23.05 L220.1,23.2 L206.9,23.45 L190.95,22.8 Q187.65,21.85,184.25,19.1 Q180.25,15.95,176.25,15.55  L172.65,15.75 Q170.9,16.4,169.7,18.8 L168,18.8 Q169.2,15.45,171.8,14.55 L175.3,14.1 L177.2,14.2  Q179.35,14.6,181.45,15.45 L182.65,16.05 L185.2,17.8 Q189,20.55,191.4,21.25 L202.7,21.8 L215.4,21.75  Q217.2,21.75,216.8,20.95 L216,20.15 L212.3,17.2 Q208.65,14.25,199.8,14.1 Q192.05,13.95,188.45,15.5 L187.25,14.25  Q191.35,12.4,199.5,12.4 Q209,12.45,213.35,15.9 L222.2,23.05 M212.1,19.95 L190.25,19.1 L192.05,18.05 L198.9,18.6  Q204.3,18.8,206.1,18.55 Q203.3,17.05,198.65,16.9 L192.9,17.2 Q191.05,17.45,188.45,19.2 L186.95,18.15 L189.4,16.7  L189.45,16.75 Q191.35,15.75,192.55,15.6 Q200.9,14.6,207.35,17.2 L212.1,19.95 M185.6,11.15 L182.95,10.75  Q185,9.35,188.3,10.5 L191.15,11.95 L189.5,12.75 L185.65,13.35 L182.3,12.95 L181.3,11.1 L185,11.65 L188,11.6  Q186.85,10.9,185.6,11.15 M183.05,15.45 L181.1,14.65 L181.05,14.5 L180.1,12.9 Q178.85,11.1,177.25,10.15  Q175.45,9.05,172.6,8.45 L168.4,8.05 L150.05,8.15 Q143.75,8.25,137.1,10.15 Q133.05,11.35,130.15,12.75  Q126.3,14.55,123.4,17.35 L125,18.7 Q124.75,19.75,124,20 L120.65,17.35 Q124.25,13.85,128.6,11.75 Q138.05,7.35,148.55,6.8  Q156,6.4,168.35,6.4 Q176.15,6.3,180.45,10.8 L182.25,13.6 L183.05,15.45 M183.4,15.9 L184.75,15.35 L186,16.6  L184.75,17.15 L183.4,15.9 M184,13.9 L186.15,13.95 L188.5,16.1 L187.1,17.05 Q185.25,15.65,184,13.9 M185.4,20.75  L182,21.05 L178.65,21.2 L178.95,19.55 L181.7,19.55 L184.05,19.45 L185.4,20.75 M183,18.9 L181.3,18.85 L181.45,17.95  L183.05,18.7 L183,18.9 M177.15,10.6 L178.85,12.35 L173.6,11.7 Q170.65,11.7,168.8,13.2 Q167.35,14.35,166.6,15.55  L164.85,15.4 Q165.9,13.25,167.85,11.85 Q169.8,10.45,172.6,10.35 L177.15,10.6 M166.2,11.9 L158.6,11.7 L145.4,12.65  Q140.3,13.55,135.2,15.65 Q132.65,16.7,131.15,17.55 L130.05,16.25 Q131.5,15.4,134.1,14.3 Q139.35,12.2,145.1,11.25  L159.55,10.2 L168.65,10.5 Q166.85,11.35,166.2,11.9 M171.35,17.45 L172.55,16.5 L179.25,16.7 L181.15,18 L177.05,18.4  L170.85,17.95 L171.35,17.45 M167.8,17.7 L150.25,16.75 Q146.7,16.9,142.7,17.9 Q139.45,18.7,138.2,19.4  Q134.3,21.5,130,25.75 L128.4,23.75 L126.55,21.65 L127.95,20.6 Q129.75,22.05,130.35,23.45 Q135.05,19.35,137.2,18.3  Q138.65,17.5,142.45,16.6 Q146.7,15.55,150.55,15.4 Q155.05,15.2,161.15,15.6 L168.85,16.1 L167.8,17.7 M164.05,18.2  L165.7,18.15 Q165.35,20.1,166.25,21.85 Q166.75,22.9,167.5,23.55 Q169.65,25.75,173.05,25.7 Q176.4,25.6,178.7,23.3  L180.05,21.8 L181.85,21.8 L179.85,24.45 Q177.05,27.25,173.05,27.35 Q169,27.45,166.3,24.7 Q164.5,22.85,164.1,20.55  L164,18.45 L164.05,18.2 M166.2,19.25 L175.7,19.45 L174.9,21.1 L166.45,20.9 L166.2,19.25 M163.4,20.85 L156.25,20.5  Q150.55,20.35,146.75,21.35 Q142.8,22.4,138.85,25 L135.7,27.45 L133.15,23.6 L134.5,22.7 L135.9,24.8  Q138.05,22.95,140.05,21.95 Q142.85,20.5,146.65,19.9 L156,19.2 L163.15,19.2 L163.4,20.85 M168.2,21.55 L170.1,21.6  L170.25,21.8 Q171.25,22.8,172.7,22.8 Q174.15,22.8,175.15,21.8 Q176.35,20.6,176.75,19.05 L178.45,19  Q178,21.25,176.35,22.95 Q174.85,24.45,172.7,24.45 Q170.6,24.45,169.1,22.95 Q168.5,22.35,168.2,21.55 M176.65,15.9  L178.45,16.4 L177.05,16.6 L176.65,15.9 M173.9,13.55 Q172.8,12.8,171.65,12.45 L174.7,12.15 L175.35,12.55 L176.7,13.7  L173.9,13.55 M124.1,13.9 L121.4,11.7 L119.1,11.7 L119.15,23.05 L121.4,23.05 L127.45,18.1 Q127.95,19.05,128.7,19.35  L122,24.75 L117.45,24.75 L117.4,10 L122,10 L125.25,12.6 Q125.2,13.1,124.65,13.45 L124.1,13.9 M131,20.95 L126.05,16.05  L127.45,15.05 L132.4,20.1 L132.7,20.45 L131.4,21.45 L131,20.95 M-117.4,10 L-122,10 L-125.25,12.6  Q-125.2,13.1,-124.65,13.45 L-124.1,13.9 L-121.4,11.7 L-119.1,11.7 L-119.15,23.05 L-121.4,23.05 L-127.45,18.1  Q-127.95,19.05,-128.7,19.35 L-122,24.75 L-117.45,24.75 L-117.4,10 M-132.7,20.45 L-131.4,21.45 L-131,20.95  L-126.05,16.05 L-127.45,15.05 L-132.4,20.1 L-132.7,20.45 M-134.5,22.7 L-135.9,24.8 Q-138.05,22.95,-140.05,21.95  Q-142.85,20.5,-146.65,19.9 L-156,19.2 L-163.15,19.2 L-163.4,20.85 L-156.25,20.5 Q-150.55,20.35,-146.75,21.35  Q-142.8,22.4,-138.85,25 L-135.7,27.45 L-133.15,23.6 L-134.5,22.7 M-130.05,16.25 Q-131.5,15.4,-134.1,14.3  Q-139.35,12.2,-145.1,11.25 L-159.55,10.2 L-168.65,10.5 Q-166.85,11.35,-166.2,11.9 L-158.6,11.7 L-145.4,12.65  Q-140.3,13.55,-135.2,15.65 Q-132.65,16.7,-131.15,17.55 L-130.05,16.25 M-130.35,23.45 Q-135.05,19.35,-137.2,18.3  Q-138.65,17.5,-142.45,16.6 Q-146.7,15.55,-150.55,15.4 Q-155.05,15.2,-161.15,15.6 L-168.85,16.1 L-167.8,17.7  L-150.25,16.75 Q-146.7,16.9,-142.7,17.9 Q-139.45,18.7,-138.2,19.4 Q-134.3,21.5,-130,25.75 L-128.4,23.75 L-126.55,21.65  L-127.95,20.6 Q-129.75,22.05,-130.35,23.45 M-124,20 L-120.65,17.35 Q-124.25,13.85,-128.6,11.75  Q-138.05,7.35,-148.55,6.8 Q-156,6.4,-168.35,6.4 Q-176.15,6.3,-180.45,10.8 L-182.25,13.6 L-183.05,15.45 L-181.1,14.65  L-181.05,14.5 L-180.1,12.9 Q-178.85,11.1,-177.25,10.15 Q-175.45,9.05,-172.6,8.45 L-168.4,8.05 L-150.05,8.15  Q-143.75,8.25,-137.1,10.15 Q-133.05,11.35,-130.15,12.75 Q-126.3,14.55,-123.4,17.35 L-125,18.7 Q-124.75,19.75,-124,20  M-178.85,12.35 L-173.6,11.7 Q-170.65,11.7,-168.8,13.2 Q-167.35,14.35,-166.6,15.55 L-164.85,15.4  Q-165.9,13.25,-167.85,11.85 Q-169.8,10.45,-172.6,10.35 L-177.15,10.6 L-178.85,12.35 M-176.65,15.9 L-178.45,16.4  L-177.05,16.6 L-176.65,15.9 M-173.9,13.55 Q-172.8,12.8,-171.65,12.45 L-174.7,12.15 L-175.35,12.55 L-176.7,13.7  L-173.9,13.55 M-172.65,15.75 Q-170.9,16.4,-169.7,18.8 L-168,18.8 Q-169.2,15.45,-171.8,14.55 L-175.3,14.1 L-177.2,14.2  Q-179.35,14.6,-181.45,15.45 L-182.65,16.05 L-185.2,17.8 Q-189,20.55,-191.4,21.25 L-202.7,21.8 L-215.4,21.75  Q-217.2,21.75,-216.8,20.95 L-216,20.15 L-212.3,17.2 Q-208.65,14.25,-199.8,14.1 Q-192.05,13.95,-188.45,15.5  L-187.25,14.25 Q-191.35,12.4,-199.5,12.4 Q-209,12.45,-213.35,15.9 L-222.2,23.05 L-220.1,23.2 L-206.9,23.45  L-190.95,22.8 Q-187.65,21.85,-184.25,19.1 Q-180.25,15.95,-176.25,15.55 L-172.65,15.75 M-181.15,18 L-177.05,18.4  L-170.85,17.95 L-171.35,17.45 L-172.55,16.5 L-179.25,16.7 L-181.15,18 M-178.65,21.2 L-178.95,19.55 L-181.7,19.55  L-184.05,19.45 L-185.4,20.75 L-182,21.05 L-178.65,21.2 M-179.85,24.45 Q-177.05,27.25,-173.05,27.35  Q-169,27.45,-166.3,24.7 Q-164.5,22.85,-164.1,20.55 L-164,18.45 L-164.05,18.2 L-165.7,18.15 Q-165.35,20.1,-166.25,21.85  Q-166.75,22.9,-167.5,23.55 Q-169.65,25.75,-173.05,25.7 Q-176.4,25.6,-178.7,23.3 L-180.05,21.8 L-181.85,21.8  L-179.85,24.45 M-174.9,21.1 L-166.45,20.9 L-166.2,19.25 L-175.7,19.45 L-174.9,21.1 M-172.7,24.45  Q-170.6,24.45,-169.1,22.95 Q-168.5,22.35,-168.2,21.55 L-170.1,21.6 L-170.25,21.8 Q-171.25,22.8,-172.7,22.8  Q-174.15,22.8,-175.15,21.8 Q-176.35,20.6,-176.75,19.05 L-178.45,19 Q-178,21.25,-176.35,22.95  Q-174.85,24.45,-172.7,24.45 M-181.45,17.95 L-183.05,18.7 L-183,18.9 L-181.3,18.85 L-181.45,17.95 M-188.3,10.5  L-191.15,11.95 L-189.5,12.75 L-185.65,13.35 L-182.3,12.95 L-181.3,11.1 L-185,11.65 L-188,11.6  Q-186.85,10.9,-185.6,11.15 L-182.95,10.75 Q-185,9.35,-188.3,10.5 M-192.9,17.2 Q-191.05,17.45,-188.45,19.2  L-186.95,18.15 L-189.4,16.7 L-189.45,16.75 Q-191.35,15.75,-192.55,15.6 Q-200.9,14.6,-207.35,17.2 L-212.1,19.95  L-190.25,19.1 L-192.05,18.05 L-198.9,18.6 Q-204.3,18.8,-206.1,18.55 Q-203.3,17.05,-198.65,16.9 L-192.9,17.2  M-186.15,13.95 L-188.5,16.1 L-187.1,17.05 Q-185.25,15.65,-184,13.9 L-186.15,13.95 M-184.75,15.35 L-186,16.6  L-184.75,17.15 L-183.4,15.9 L-184.75,15.35 "
       id="path8"
       style="stroke:none;fill:#999999;fill-opacity:1;" />
  </g>
</svg>
