<?xml version="1.0" encoding="UTF-8" standalone="no"?>
<svg
   xmlns:dc="http://purl.org/dc/elements/1.1/"
   xmlns:cc="http://creativecommons.org/ns#"
   xmlns:rdf="http://www.w3.org/1999/02/22-rdf-syntax-ns#"
   xmlns:svg="http://www.w3.org/2000/svg"
   xmlns="http://www.w3.org/2000/svg"
   xmlns:sodipodi="http://sodipodi.sourceforge.net/DTD/sodipodi-0.dtd"
   xmlns:inkscape="http://www.inkscape.org/namespaces/inkscape"
   viewBox="-245.85 4.25 491.7 23.05"
   id="svg2"
   version="1.1"
   inkscape:version="0.47 r22583"
   width="100%"
   height="100%"
   sodipodi:docname="thieves.svg">
  <metadata
     id="metadata14">
    <rdf:RDF>
      <cc:Work
         rdf:about="">
        <dc:format>image/svg+xml</dc:format>
        <dc:type
           rdf:resource="http://purl.org/dc/dcmitype/StillImage" />
      </cc:Work>
    </rdf:RDF>
  </metadata>
  <defs
     id="defs12">
    <inkscape:perspective
       sodipodi:type="inkscape:persp3d"
       inkscape:vp_x="0 : 11.525 : 1"
       inkscape:vp_y="0 : 1000 : 0"
       inkscape:vp_z="491.7 : 11.525 : 1"
       inkscape:persp3d-origin="245.85 : 7.6833333 : 1"
       id="perspective16" />
  </defs>
  <sodipodi:namedview
     pagecolor="#ffffff"
     bordercolor="#666666"
     borderopacity="1"
     objecttolerance="10"
     gridtolerance="10"
     guidetolerance="10"
     inkscape:pageopacity="0"
     inkscape:pageshadow="2"
     inkscape:window-width="648"
     inkscape:window-height="483"
     id="namedview10"
     showgrid="false"
     inkscape:zoom="1.0982306"
     inkscape:cx="245.85"
     inkscape:cy="11.525"
     inkscape:window-x="0"
     inkscape:window-y="0"
     inkscape:window-maximized="0"
     inkscape:current-layer="svg2" />
  <desc
     id="desc4">Created by Action Script Viewer - http://www.buraks.com/asv</desc>
  <g
     id="g6">
    <path
       fill="none"
       stroke="#000000"
       stroke-width="0.01"
       stroke-opacity="1"
       d="M245.85,21.25 Q245.85,22.45,244.95,23.3 Q244.1,24.15,242.9,24.15 L234.75,24.15 Q234.1,23.6,234.1,23  Q234.1,22.6,234.4,22.1 L234.75,21.65 L242.9,21.65 Q243.3,21.65,243.3,21.25 L243.3,20.25 L234.75,20.25  Q234.1,19.7,234.1,19.05 Q234.1,18.65,234.4,18.15 L234.75,17.7 L243.3,17.7 L243.3,16.6 L234.75,16.6  Q234.1,16.05,234.1,15.4 Q234.1,15.05,234.4,14.5 L234.75,14.05 L243.3,14.05 L243.3,10.6 Q243.3,10.15,242.9,10.15  L229.55,10.15 L227.4,15.6 L199.55,15.6 L199.55,18.6 L191,19.5 L191,17.55 Q169.15,23.65,163.75,23.65  Q158.15,23.65,154.1,21 L152.7,20.05 Q147.9,20.25,141.35,23.8 Q138.05,25.6,135.7,27.3 L133.8,24.35 L135.1,23.4  L135.9,24.65 Q139.05,22.6,143.95,20.75 Q149.35,18.7,153.95,18.15 Q159.35,21.05,164,21.05 Q169.4,21.05,193.8,14.25  L193.8,13.65 Q169.85,6.85,164,6.85 Q156.75,6.85,153.9,10.3 L150.45,10.4 L152.75,7.95 L154.1,6.85  Q158.1,4.25,163.75,4.25 Q169.6,4.25,191,10.35 L191,8.55 L199.55,10.05 L199.55,13.05 L225.45,13.05 L227.95,7.65  L242.9,7.65 Q244.1,7.65,244.95,8.5 Q245.85,9.35,245.85,10.6 L245.85,21.25 M167.95,11.1 Q160.85,9.3,155.9,9.75  L157.2,8.9 Q162.75,8.45,171.3,10.7 L179.15,13.15 L181.2,13.75 L179.15,14.35 L172.4,16.25 Q165.7,18.05,163.7,18.05  Q161.05,18.05,159.25,16.8 Q157.45,15.6,157.45,13.75 L157.7,12.6 Q150,11.5,139.8,14.35 Q134.7,15.8,131.15,17.45  L130.1,16.1 Q133.7,14.3,139.3,12.8 Q150.55,9.8,160.6,11.4 L159.65,12.05 Q158.75,12.85,158.7,13.75  Q158.65,15,160.15,15.9 Q161.65,16.8,163.7,16.8 Q166.3,16.8,176.75,13.75 L167.95,11.1 M150.6,8.9 L150.15,9.4  Q139,9.05,130.15,12.6 Q127.7,13.6,125.3,15.5 L123.4,17.2 L125,18.55 Q124.8,19.55,124.05,19.85 L120.65,17.2 L122.95,15.1  Q125.8,12.75,128.6,11.6 Q137.9,7.9,151.05,8.4 L150.6,8.9 M149,14.2 L149.15,13.25 L152.45,13.15 Q152.4,13.85,152.7,15.35  Q153,16.75,153.2,17.05 Q146.95,16.95,137.9,21.2 Q133.4,23.35,130,25.6 L128.4,23.65 L126.55,21.55 L127.95,20.45  Q129.75,21.9,130.35,23.3 L136.75,19.85 Q144.05,16.35,149.1,15.8 Q148.9,15.2,149,14.2 M124.1,13.75 L121.4,11.55  L119.1,11.55 L119.15,22.9 L121.4,22.9 L127.45,17.95 Q127.95,18.9,128.7,19.2 L122,24.6 L117.45,24.6 L117.4,9.85  L122,9.85 L125.25,12.45 Q125.2,12.95,124.65,13.3 L124.1,13.75 M131,20.8 L126.05,15.9 L127.45,14.9 L132.4,19.95  L132.7,20.3 L131.45,21.3 L131,20.8 M-117.4,9.85 L-122,9.85 L-125.25,12.45 Q-125.2,12.95,-124.65,13.3 L-124.1,13.75  L-121.4,11.55 L-119.1,11.55 L-119.15,22.9 L-121.4,22.9 L-127.45,17.95 Q-127.95,18.9,-128.7,19.2 L-122,24.6  L-117.45,24.6 L-117.4,9.85 M-132.7,20.3 L-131.45,21.3 L-131,20.8 L-126.05,15.9 L-127.45,14.9 L-132.4,19.95 L-132.7,20.3  M-135.1,23.4 L-135.9,24.65 Q-139.05,22.6,-143.95,20.75 Q-149.35,18.7,-153.95,18.15 Q-159.35,21.05,-164,21.05  Q-169.4,21.05,-193.8,14.25 L-193.8,13.65 Q-169.85,6.85,-164,6.85 Q-156.75,6.85,-153.9,10.3 L-150.45,10.4 L-152.75,7.95  L-154.1,6.85 Q-158.1,4.25,-163.75,4.25 Q-169.6,4.25,-191,10.35 L-191,8.55 L-199.55,10.05 L-199.55,13.05 L-225.45,13.05  L-227.95,7.65 L-242.9,7.65 Q-244.1,7.65,-244.95,8.5 Q-245.85,9.35,-245.85,10.6 L-245.85,21.25  Q-245.85,22.45,-244.95,23.3 Q-244.1,24.15,-242.9,24.15 L-234.75,24.15 Q-234.1,23.6,-234.1,23 Q-234.1,22.6,-234.4,22.1  L-234.75,21.65 L-242.9,21.65 Q-243.3,21.65,-243.3,21.25 L-243.3,20.25 L-234.75,20.25 Q-234.1,19.7,-234.1,19.05  Q-234.1,18.65,-234.4,18.15 L-234.75,17.7 L-243.3,17.7 L-243.3,16.6 L-234.75,16.6 Q-234.1,16.05,-234.1,15.4  Q-234.1,15.05,-234.4,14.5 L-234.75,14.05 L-243.3,14.05 L-243.3,10.6 Q-243.3,10.15,-242.9,10.15 L-229.55,10.15  L-227.4,15.6 L-199.55,15.6 L-199.55,18.6 L-191,19.5 L-191,17.55 Q-169.15,23.65,-163.75,23.65 Q-158.15,23.65,-154.1,21  L-152.7,20.05 Q-147.9,20.25,-141.35,23.8 Q-138.05,25.6,-135.7,27.3 L-133.8,24.35 L-135.1,23.4 M-123.4,17.2 L-125,18.55  Q-124.8,19.55,-124.05,19.85 L-120.65,17.2 L-122.95,15.1 Q-125.8,12.75,-128.6,11.6 Q-137.9,7.9,-151.05,8.4 L-150.6,8.9  L-150.15,9.4 Q-139,9.05,-130.15,12.6 Q-127.7,13.6,-125.3,15.5 L-123.4,17.2 M-130.1,16.1 Q-133.7,14.3,-139.3,12.8  Q-150.55,9.8,-160.6,11.4 L-159.65,12.05 Q-158.75,12.85,-158.7,13.75 Q-158.65,15,-160.15,15.9 Q-161.65,16.8,-163.7,16.8  Q-166.3,16.8,-176.75,13.75 L-167.95,11.1 Q-160.85,9.3,-155.9,9.75 L-157.2,8.9 Q-162.75,8.45,-171.3,10.7 L-179.15,13.15  L-181.2,13.75 L-179.15,14.35 L-172.4,16.25 Q-165.7,18.05,-163.7,18.05 Q-161.05,18.05,-159.25,16.8  Q-157.45,15.6,-157.45,13.75 L-157.7,12.6 Q-150,11.5,-139.8,14.35 Q-134.7,15.8,-131.15,17.45 L-130.1,16.1 M-130.35,23.3  L-136.75,19.85 Q-144.05,16.35,-149.1,15.8 Q-148.9,15.2,-149,14.2 L-149.15,13.25 L-152.45,13.15  Q-152.4,13.85,-152.7,15.35 Q-153,16.75,-153.2,17.05 Q-146.95,16.95,-137.9,21.2 Q-133.4,23.35,-130,25.6 L-128.4,23.65  L-126.55,21.55 L-127.95,20.45 Q-129.75,21.9,-130.35,23.3 "
       id="path8"
       style="stroke:none;fill:#999999;fill-opacity:1;" />
  </g>
</svg>
