<svg xmlns="http://www.w3.org/2000/svg" xmlns:lucid="lucid" xmlns:xlink="http://www.w3.org/1999/xlink" viewBox="0 0 1220 1140"><defs><path id="i" fill="#5e5e5e" d="M540.27 161h-1.07l.08-1.88-.03-.12h1.02z"/><path id="j" fill="#5e5e5e" stroke="#5e5e5e" stroke-width="2" d="M675.26 260 661 264.64v-9.28z"/><path id="k" fill="#5e5e5e" stroke="#5e5e5e" stroke-width="2" d="M675.26 100 661 104.64v-9.28z"/><path id="u" fill="#5e5e5e" d="M581 408.7h-2v-1.02h2z"/><path id="C" fill="#5e5e5e" d="M881 802.53h-2v-1.03h2z"/></defs><g lucid:page-tab-id="0_0" transform="translate(-200 -20)"><path fill="none" stroke="#5e5e5e" stroke-width="2" d="M941.57 540.38H1214a6 6 0 0 0 6-6V460"/><path fill="#5e5e5e" d="M941.6 541.38h-.5l-1.06-2h1.56z"/><path fill="#5e5e5e" stroke="#5e5e5e" stroke-width="2" d="m1220 444.74 4.64 14.26h-9.28z"/><path fill="#ffeca9" stroke="#5e5e5e" stroke-width="3" d="M408.25 124.7c2.07-2.6 6.44-4.7 9.75-4.7h84c3.3 0 7.68 2.1 9.75 4.7l24.5 30.6a7.9 7.9 0 0 1 0 9.4l-24.5 30.6c-2.07 2.6-6.44 4.7-9.75 4.7h-84c-3.3 0-7.68-2.1-9.75-4.7l-24.5-30.6a7.9 7.9 0 0 1 0-9.4z"/><use xlink:href="#a" transform="translate(404.51 164.65)"/><use xlink:href="#b" transform="translate(446.49 164.65)"/><path fill="#83bbe5" stroke="#5e5e5e" stroke-width="3" d="M680 46c0-3.3 2.7-6 6-6h388c3.3 0 6 2.7 6 6v108c0 3.3-2.7 6-6 6H686c-3.3 0-6-2.7-6-6z"/><use xlink:href="#c" transform="translate(822.1 90.78)"/><use xlink:href="#d" transform="translate(912.04 90.78)"/><use xlink:href="#e" transform="translate(785.9 117.44)"/><use xlink:href="#f" transform="translate(852 117.44)"/><use xlink:href="#g" transform="translate(921.08 117.44)"/><path fill="#ff8f80" stroke="#5e5e5e" stroke-width="3" d="M680 206c0-3.3 2.7-6 6-6h388c3.3 0 6 2.7 6 6v108c0 3.3-2.7 6-6 6H686c-3.3 0-6-2.7-6-6z"/><use xlink:href="#h" transform="translate(855.34 265.78)"/><path fill="none" stroke="#5e5e5e" stroke-width="2" d="M996.26 197.5V180"/><path fill="#5e5e5e" d="M997.26 198.5h-2v-1.03h2z"/><path fill="#5e5e5e" stroke="#5e5e5e" stroke-width="2" d="m996.26 164.74 4.63 14.26h-9.28z"/><path fill="none" stroke="#5e5e5e" stroke-width="2" d="M762.26 162.5V180"/><path fill="#5e5e5e" d="M763.26 162.53h-2v-1.03h2z"/><path fill="#5e5e5e" stroke="#5e5e5e" stroke-width="2" d="M762.26 195.26 757.62 181h9.27z"/><path fill="none" stroke="#5e5e5e" stroke-width="2" d="M540.24 160H574c3.3 0 6 2.7 6 6v88c0 3.3 2.7 6 6 6h74"/><use xlink:href="#i"/><use xlink:href="#j" stroke-width="2"/><path fill="none" stroke="#5e5e5e" stroke-width="2" d="M540.24 160H574c3.3 0 6-2.7 6-6v-48c0-3.3 2.7-6 6-6h74"/><use xlink:href="#i"/><use xlink:href="#k" stroke-width="2"/><path fill="#a3d977" stroke="#5e5e5e" stroke-width="3" d="M829.18 525.3c1.56-2.93 5.5-5.3 8.82-5.3h84c3.3 0 7.26 2.37 8.82 5.3l26.36 49.4c1.56 2.93 1.56 7.67 0 10.6l-26.36 49.4c-1.56 2.93-5.5 5.3-8.82 5.3h-84c-3.3 0-7.26-2.37-8.82-5.3l-26.36-49.4c-1.56-2.93-1.56-7.67 0-10.6z"/><use xlink:href="#l" transform="translate(831.89 570.28)"/><use xlink:href="#m" transform="translate(844.88 596.94)"/><path fill="none" stroke="#5e5e5e" stroke-width="2" d="M880 480.83V500"/><path fill="#5e5e5e" d="M881 480.86h-2v-1.03h2z"/><path fill="#5e5e5e" stroke="#5e5e5e" stroke-width="2" d="M880 515.26 875.36 501h9.28z"/><path fill="#e5e5e5" stroke="#5e5e5e" stroke-width="3" d="M1141.55 325.8c-.86-3.2 1.14-5.8 4.45-5.8h148c3.3 0 5.3 2.6 4.45 5.8l-28.9 108.4a8.25 8.25 0 0 1-7.55 5.8h-84c-3.3 0-6.7-2.6-7.55-5.8z"/><use xlink:href="#n" transform="translate(1187.32 377.15)"/><use xlink:href="#o" transform="translate(1193.46 403.82)"/><path fill="none" stroke="#5e5e5e" stroke-width="2" d="M1153.45 380h-108.2c-3.3 0-6-2.7-6-6v-34"/><path fill="#5e5e5e" d="M1154.7 381h-1.28v-2h.76z"/><path fill="#5e5e5e" stroke="#5e5e5e" stroke-width="2" d="m1039.26 324.74 4.63 14.26h-9.28z"/><path fill="none" stroke="#5e5e5e" stroke-width="2" d="M1220 317.5V106a6 6 0 0 0-6-6h-114"/><path fill="#5e5e5e" d="M1221 318.5h-2v-1.03h2z"/><path fill="#5e5e5e" stroke="#5e5e5e" stroke-width="2" d="m1084.74 100 14.26-4.64v9.28z"/><path fill="#333" stroke="#fff" stroke-width="3" d="M770 445.17a6 6 0 0 1 6-6h208a6 6 0 0 1 6 6v27.16a6 6 0 0 1-6 6H776a6 6 0 0 1-6-6z"/><path fill="none" stroke="#fff" stroke-width="3" d="M792 439.17v39.16m176-39.16v39.16"/><use xlink:href="#p" transform="translate(804.26 463.61)"/><use xlink:href="#q" transform="translate(879.44 463.61)"/><path fill="#ffeca9" stroke="#5e5e5e" stroke-width="3" d="M502.9 413.37a24.8 24.8 0 0 1 11.1-3.16h132c3.3 0 8.28 1.42 11.1 3.17l37.8 23.47c2.82 1.74 2.82 4.58 0 6.32l-37.8 23.47a24.8 24.8 0 0 1-11.1 3.16H514c-3.3 0-8.28-1.42-11.1-3.17l-37.8-23.47c-2.82-1.74-2.82-4.58 0-6.32z"/><use xlink:href="#r" transform="translate(501.09 445.49)"/><use xlink:href="#s" transform="translate(551.58 445.49)"/><use xlink:href="#t" transform="translate(576.27 445.49)"/><path fill="none" stroke="#5e5e5e" stroke-width="2" d="M580 407.7V266c0-3.3 2.7-6 6-6h74"/><use xlink:href="#u"/><use xlink:href="#j" stroke-width="2"/><path fill="none" stroke="#5e5e5e" stroke-width="2" d="M580 407.7V106c0-3.3 2.7-6 6-6h74"/><use xlink:href="#u"/><use xlink:href="#k" stroke-width="2"/><path fill="none" d="M780 166c0-3.3 2.7-6 6-6h188c3.3 0 6 2.7 6 6v28c0 3.3-2.7 6-6 6H786c-3.3 0-6-2.7-6-6z"/><use xlink:href="#v" transform="translate(798.12 184.65)"/><use xlink:href="#w" transform="translate(872 184.65)"/><path fill="none" stroke="#5e5e5e" stroke-width="2" d="M607.5 580H586c-3.3 0-6-2.7-6-6v-84.2"/><path fill="#5e5e5e" d="M608.5 581h-1.03v-2h1.03z"/><path fill="#5e5e5e" stroke="#5e5e5e" stroke-width="2" d="m580 474.53 4.64 14.26h-9.28z"/><path fill="none" stroke="#5e5e5e" stroke-width="2" d="M799.2 580h-89.6c-.14 0-.25.1-.25.25 0 .14-.1.25-.25.25H637"/><path fill="#5e5e5e" d="m800.15 579.48.14 1.52h-1.13v-2h1.06z"/><path fill="#5e5e5e" stroke="#5e5e5e" stroke-width="2" d="m621.74 580.5 14.26-4.64v9.27z"/><path fill="#fff" stroke="#5e5e5e" stroke-width="3" d="M1155 563.33a23.32 23.32 0 0 1 11-3.33h204c16.57 0 30 17.9 30 40s-13.43 40-30 40h-204c-3.3 0-8.24-1.5-11-3.33l-50-33.34c-2.76-1.84-2.76-4.82 0-6.66z"/><use xlink:href="#x" transform="translate(1189.55 604.65)"/><use xlink:href="#y" transform="translate(1235.23 604.65)"/><path fill="none" stroke="#5e5e5e" stroke-width="2" d="M1100.58 600H969.54"/><path fill="#5e5e5e" d="M1101.7 601h-1.14v-2h.9z"/><path fill="#5e5e5e" stroke="#5e5e5e" stroke-width="2" d="m954.27 600 14.27-4.64v9.28z"/><path fill="#83bbe5" stroke="#5e5e5e" stroke-width="3" d="M770 366c0-3.3 2.7-6 6-6h208c3.3 0 6 2.7 6 6v27.17c0 3.3-2.7 6-6 6H776c-3.3 0-6-2.7-6-6z"/><use xlink:href="#z" transform="translate(838.73 389.78)"/><path fill="none" stroke="#5e5e5e" stroke-width="2" d="M880 401.67v17.5"/><path fill="#5e5e5e" d="M881 401.7h-2v-1.03h2z"/><path fill="#5e5e5e" stroke="#5e5e5e" stroke-width="2" d="m880 434.43-4.64-14.27h9.28z"/><path fill="none" stroke="#5e5e5e" stroke-width="2" d="M880 322.5V340"/><path fill="#5e5e5e" d="M881 322.53h-2v-1.03h2z"/><path fill="#5e5e5e" stroke="#5e5e5e" stroke-width="2" d="M880 355.26 875.36 341h9.28z"/><path fill="#a3d977" stroke="#5e5e5e" stroke-width="3" d="M809.56 724.04C812 721.8 816.7 720 820 720h120c3.3 0 8 1.8 10.44 4.04l35.12 31.92a5.36 5.36 0 0 1 0 8.08l-35.12 31.92C948 798.2 943.3 800 940 800H820c-3.3 0-8-1.8-10.44-4.04l-35.12-31.92a5.36 5.36 0 0 1 0-8.08z"/><use xlink:href="#A" transform="translate(856.58 751.53)"/><use xlink:href="#B" transform="translate(818.3 778.2)"/><path fill="none" stroke="#5e5e5e" stroke-width="2" d="M880 802.5V824c0 3.3-2.7 6-6 6h-54"/><use xlink:href="#C"/><path fill="#5e5e5e" stroke="#5e5e5e" stroke-width="2" d="m804.74 830 14.26-4.64v9.28z"/><path fill="none" stroke="#5e5e5e" stroke-width="2" d="M880 802.5V824c0 3.3 2.7 6 6 6h54"/><use xlink:href="#C"/><path fill="#5e5e5e" stroke="#5e5e5e" stroke-width="2" d="M955.26 830 941 834.64v-9.28z"/><path fill="none" stroke="#5e5e5e" stroke-width="2" d="M1150 802.48V766c0-3.3-2.7-6-6-6h-136.58"/><path fill="#5e5e5e" d="m1151 803.45-2 .06v-1.05h2z"/><path fill="#5e5e5e" stroke="#5e5e5e" stroke-width="2" d="m992.16 760 14.26-4.64v9.28z"/><path fill="none" stroke="#5e5e5e" stroke-width="2" d="M610 802.48V766c0-3.3 2.7-6 6-6h136.58"/><path fill="#5e5e5e" d="m611 803.5-2-.05v-1h2z"/><path fill="#5e5e5e" stroke="#5e5e5e" stroke-width="2" d="m767.84 760-14.26 4.64v-9.28z"/><path fill="#333" stroke="#fff" stroke-width="3" d="M770 926c0-3.3 2.7-6 6-6h208c3.3 0 6 2.7 6 6v27.17c0 3.3-2.7 6-6 6H776c-3.3 0-6-2.7-6-6z"/><path fill="none" stroke="#fff" stroke-width="3" d="M792 920v39.17M968 920v39.17"/><use xlink:href="#p" transform="translate(804.26 944.44)"/><use xlink:href="#q" transform="translate(879.44 944.44)"/><path fill="none" stroke="#5e5e5e" stroke-width="2" d="M880 802.5V900"/><use xlink:href="#C"/><path fill="#5e5e5e" stroke="#5e5e5e" stroke-width="2" d="M880 915.26 875.36 901h9.28z"/><path fill="none" stroke="#5e5e5e" stroke-width="2" d="M610 862.5v71.08a6 6 0 0 0 6 6h134"/><path fill="#5e5e5e" d="M611 862.53h-2v-1.03h2z"/><path fill="#5e5e5e" stroke="#5e5e5e" stroke-width="2" d="M765.26 939.58 751 944.22v-9.27z"/><path fill="none" stroke="#5e5e5e" stroke-width="2" d="M1150 862.5v71.08a6 6 0 0 1-6 6h-134"/><path fill="#5e5e5e" d="M1151 862.53h-2v-1.03h2z"/><path fill="#5e5e5e" stroke="#5e5e5e" stroke-width="2" d="m994.74 939.58 14.26-4.63v9.27z"/><path fill="#da8e35" stroke="#5e5e5e" stroke-width="3" d="M960 815.96c0-3.3 2.7-6.07 6-6.16l368-9.64c3.3-.1 6 2.53 6 5.84v48c0 3.3-2.7 6-6 6H966c-3.3 0-6-2.7-6-6z"/><use xlink:href="#D" transform="translate(972.47 840.28)"/><use xlink:href="#E" transform="translate(1057.53 840.28)"/><use xlink:href="#F" transform="translate(1147.6 840.28)"/><use xlink:href="#G" transform="translate(1216.67 840.28)"/><path fill="#b2d6ef" stroke="#5e5e5e" stroke-width="3" d="M800 815.96c0-3.3-2.7-6.07-6-6.16l-368-9.64c-3.3-.1-6 2.53-6 5.84v48c0 3.3 2.7 6 6 6h368c3.3 0 6-2.7 6-6z"/><use xlink:href="#H" transform="translate(527.5 840.28)"/><use xlink:href="#I" transform="translate(609.97 840.28)"/><path fill="#5e5e5e" stroke="#000" stroke-width="3" d="M226 520c-3.3 0-6-2.7-6-6v-94a60 60 0 1 1 120 0v94c0 3.3-2.7 6-6 6z"/><use xlink:href="#J" transform="translate(247.31 429.65)"/><use xlink:href="#K" transform="translate(300.34 429.65)"/><use xlink:href="#L" transform="translate(251.02 456.32)"/><path fill="none" stroke="#5e5e5e" stroke-width="2" d="M280 357.5V166c0-3.3 2.7-6 6-6h76.26"/><path fill="#5e5e5e" d="m281 358.54-1-.04-1 .03v-1.06h2z"/><path fill="#5e5e5e" stroke="#5e5e5e" stroke-width="2" d="m377.52 160-14.26 4.64v-9.28z"/><path fill="#da8e35" stroke="#5e5e5e" stroke-width="3" d="M940 1127.17c0 6.62-26.86 12-60 12s-60-5.38-60-12v-96c0-6.63 26.86-12 60-12s60 5.37 60 12z"/><path fill="none" stroke="#5e5e5e" stroke-width="3" d="M940 1031.17c0 6.62-26.86 12-60 12s-60-5.38-60-12"/><use xlink:href="#M" transform="translate(844.88 1082.07)"/><use xlink:href="#N" transform="translate(858.43 1108.74)"/><path fill="none" stroke="#5e5e5e" stroke-width="2" d="M880 961.67v37.5"/><path fill="#5e5e5e" d="M881 961.7h-2v-1.03h2z"/><path fill="#5e5e5e" stroke="#5e5e5e" stroke-width="2" d="m880 1014.43-4.64-14.27h9.28z"/><path fill="#da8e35" stroke="#5e5e5e" stroke-width="3" d="M820 1020c-15.46 0-28 26.86-28 60s12.54 60 28 60H568c-15.46 0-28-26.86-28-60s12.54-60 28-60z"/><use xlink:href="#O" transform="translate(551.34 1070.28)"/><use xlink:href="#P" transform="translate(672.27 1070.28)"/><use xlink:href="#Q" transform="translate(722.76 1070.28)"/><use xlink:href="#G" transform="translate(613.07 1096.94)"/><path fill="none" stroke="#5e5e5e" stroke-width="2" d="M817.5 1079.17h-5.48"/><path fill="#5e5e5e" d="M818.5 1080.17h-1.03v-2h1.03z"/><path fill="#5e5e5e" stroke="#5e5e5e" stroke-width="2" d="m796.77 1079.17 14.26-4.64v9.27z"/><path fill="#da8e35" stroke="#5e5e5e" stroke-width="3" d="M540 1019.17c-11.05 0-20 26.86-20 60 0 33.13 8.95 60 20 60H360c-11.05 0-20-26.87-20-60 0-33.14 8.95-60 20-60z"/><use xlink:href="#R" transform="translate(369.99 1055.7)"/><use xlink:href="#S" transform="translate(453.88 1055.7)"/><use xlink:href="#T" transform="translate(362.2 1082.36)"/><use xlink:href="#U" transform="translate(428.86 1082.36)"/><use xlink:href="#V" transform="translate(393.09 1109.03)"/><path fill="none" stroke="#5e5e5e" stroke-width="2" d="M537.5 1080h.87"/><path fill="#5e5e5e" d="m538.5 1080 .03 1h-1.06v-2h1.07z"/><path fill="#5e5e5e" stroke="#5e5e5e" stroke-width="2" d="m524.75 1078.66 14.65-3.22-.9 9.23z"/><path fill="none" stroke="#5e5e5e" stroke-width="2" d="M337.5 1079.17H286c-3.3 0-6-2.7-6-6V540"/><path fill="#5e5e5e" d="m338.5 1079.16.03 1h-1.06v-2h1.07z"/><path fill="#5e5e5e" stroke="#5e5e5e" stroke-width="2" d="m280 524.74 4.64 14.26h-9.28z"/><path fill="#fff" stroke="#5e5e5e" stroke-width="3" d="M780 166c0-3.3 2.7-6 6-6h188c3.3 0 6 2.7 6 6v28c0 3.3-2.7 6-6 6H786c-3.3 0-6-2.7-6-6z"/><use xlink:href="#W" transform="translate(798.12 184.65)"/><use xlink:href="#X" transform="translate(872 184.65)"/><path fill="none" stroke="#5e5e5e" stroke-width="2" d="M818.26 619.3H626a6 6 0 0 0-6 6v49.04a6 6 0 0 0 6 6h35.75"/><path fill="#5e5e5e" d="M819.8 620.3h-1.57v-2h.5z"/><path fill="#5e5e5e" stroke="#5e5e5e" stroke-width="2" d="m677.02 680.34-14.27 4.64v-9.27z"/><path fill="none" stroke="#5e5e5e" stroke-width="2" d="M537.5 680h-153c-3.3 0-6 2.7-6 6v138c0 3.3 2.7 6 6 6H400"/><path fill="#5e5e5e" d="M538.5 681h-1.03v-2h1.03z"/><path fill="#5e5e5e" stroke="#5e5e5e" stroke-width="2" d="M415.26 830 401 834.64v-9.28z"/><path fill="#fff" stroke="#5e5e5e" stroke-width="3" d="M980 524.33c0-3.3 2.7-6 6-6h148c3.3 0 6 2.7 6 6v28a6 6 0 0 1-6 6H986a6 6 0 0 1-6-6z"/><use xlink:href="#Y" transform="translate(1012.12 541.3)"/><use xlink:href="#Z" transform="translate(1057.56 541.3)"/><path fill="#fff" stroke="#5e5e5e" stroke-width="3" d="M610 566c0-3.3 2.7-6 6-6h148c3.3 0 6 2.7 6 6v28c0 3.3-2.7 6-6 6H616c-3.3 0-6-2.7-6-6z"/><use xlink:href="#aa" transform="translate(621.93 582.97)"/><use xlink:href="#ab" transform="translate(678.17 582.97)"/><path fill="#fff" stroke="#5e5e5e" stroke-width="3" d="M540 666c0-3.3 2.7-6 6-6h148c3.3 0 6 2.7 6 6v28c0 3.3-2.7 6-6 6H546c-3.3 0-6-2.7-6-6z"/><use xlink:href="#ac" transform="translate(572.15 682.97)"/><use xlink:href="#ad" transform="translate(603.65 682.97)"/><path fill="none" stroke="#5e5e5e" stroke-width="2" d="M880 642.5V700"/><path fill="#5e5e5e" d="M881 642.53h-2v-1.03h2z"/><path fill="#5e5e5e" stroke="#5e5e5e" stroke-width="2" d="M880 715.26 875.36 701h9.28z"/><path fill="#fff" stroke="#5e5e5e" stroke-width="3" d="M800 656c0-3.3 2.7-6 6-6h148c3.3 0 6 2.7 6 6v28c0 3.3-2.7 6-6 6H806c-3.3 0-6-2.7-6-6z"/><use xlink:href="#ae" transform="translate(822.84 672.97)"/><defs><path id="af" fill="#333" d="M143 4C61 4 22-44 18-125c-5-107 100-154 193-111 17 8 29 25 37 43l-32 9c-13-25-37-40-76-40-61 0-88 39-88 99 0 61 29 100 91 101 35 0 62-11 79-27v-45h-74v-28h105v86C228-13 192 4 143 4"/><path id="ag" fill="#333" d="M100-194c63 0 86 42 84 106H49c0 40 14 67 53 68 26 1 43-12 49-29l28 8c-11 28-37 45-77 45C44 4 14-33 15-96c1-61 26-98 85-98zm52 81c6-60-76-77-97-28-3 7-6 17-6 28h103"/><path id="ah" fill="#333" d="M59-47c-2 24 18 29 38 22v24C64 9 27 4 27-40v-127H5v-23h24l9-43h21v43h35v23H59v120"/><path id="ai" fill="#333" d="M33 0v-248h34V0H33"/><path id="aj" fill="#333" d="M85-194c31 0 48 13 60 33l-1-100h32l1 261h-30c-2-10 0-23-3-31C134-8 116 4 85 4 32 4 16-35 15-94c0-66 23-100 70-100zm9 24c-40 0-46 34-46 75 0 40 6 74 45 74 42 0 51-32 51-76 0-42-9-74-50-73"/><path id="ak" fill="#333" d="M141-36C126-15 110 5 73 4 37 3 15-17 15-53c-1-64 63-63 125-63 3-35-9-54-41-54-24 1-41 7-42 31l-33-3c5-37 33-52 76-52 45 0 72 20 72 64v82c-1 20 7 32 28 27v20c-31 9-61-2-59-35zM48-53c0 20 12 33 32 33 41-3 63-29 60-74-43 2-92-5-92 41"/><path id="al" fill="#333" d="M87 75C49 33 22-17 22-94c0-76 28-126 65-167h31c-38 41-64 92-64 168S80 34 118 75H87"/><path id="am" fill="#333" d="M135-143c-3-34-86-38-87 0 15 53 115 12 119 90S17 21 10-45l28-5c4 36 97 45 98 0-10-56-113-15-118-90-4-57 82-63 122-42 12 7 21 19 24 35"/><path id="an" fill="#333" d="M33-261c38 41 65 92 65 168S71 34 33 75H2C39 34 66-17 66-93S39-220 2-261h31"/><path id="ao" fill="#333" d="M212-179c-10-28-35-45-73-45-59 0-87 40-87 99 0 60 29 101 89 101 43 0 62-24 78-52l27 14C228-24 195 4 139 4 59 4 22-46 18-125c-6-104 99-153 187-111 19 9 31 26 39 46"/><path id="ap" fill="#333" d="M114-163C36-179 61-72 57 0H25l-1-190h30c1 12-1 29 2 39 6-27 23-49 58-41v29"/><path id="aq" fill="#333" d="M24-231v-30h32v30H24zM24 0v-190h32V0H24"/><path id="ar" fill="#333" d="M100-194c62-1 85 37 85 99 1 63-27 99-86 99S16-35 15-95c0-66 28-99 85-99zM99-20c44 1 53-31 53-75 0-43-8-75-51-75s-53 32-53 75 10 74 51 75"/><path id="as" fill="#333" d="M117-194c89-4 53 116 60 194h-32v-121c0-31-8-49-39-48C34-167 62-67 57 0H25l-1-190h30c1 10-1 24 2 32 11-22 29-35 61-36"/><path id="at" fill="#333" d="M194 0 95-120 63-95V0H30v-248h33v124l119-124h40L117-140 236 0h-42"/><path id="au" fill="#333" d="M137 0h-34L2-248h35l83 218 83-218h36"/><path id="av" fill="#333" d="M84 4C-5 8 30-112 23-190h32v120c0 31 7 50 39 49 72-2 45-101 50-169h31l1 190h-30c-1-10 1-25-2-33-11 22-28 36-60 37"/><path id="aw" fill="#333" d="M24 0v-261h32V0H24"/><path id="ax" fill="#333" d="M185-189c-5-48-123-54-124 2 14 75 158 14 163 119 3 78-121 87-175 55-17-10-28-26-33-46l33-7c5 56 141 63 141-1 0-78-155-14-162-118-5-82 145-84 179-34 5 7 8 16 11 25"/><path id="ay" fill="#333" d="M141 0 90-78 38 0H4l68-98-65-92h35l48 74 47-74h35l-64 92 68 98h-35"/><path id="az" fill="#333" d="M30 0v-248h187v28H63v79h144v27H63v87h162V0H30"/><path id="aA" fill="#333" d="M108 0H70L1-190h34L89-25l56-165h34"/><path id="aB" fill="#333" d="M127-220V0H93v-220H8v-28h204v28h-85"/><path id="aC" fill="#333" d="M177-190C167-65 218 103 67 71c-23-6-38-20-44-43l32-5c15 47 100 32 89-28v-30C133-14 115 1 83 1 29 1 15-40 15-95c0-56 16-97 71-98 29-1 48 16 59 35 1-10 0-23 2-32h30zM94-22c36 0 50-32 50-73 0-42-14-75-50-75-39 0-46 34-46 75s6 73 46 73"/><path id="aD" fill="#333" d="M30-248c118-7 216 8 213 122C240-48 200 0 122 0H30v-248zM63-27c89 8 146-16 146-99s-60-101-146-95v194"/><path id="aE" fill="#333" d="M115-194c53 0 69 39 70 98 0 66-23 100-70 100C84 3 66-7 56-30L54 0H23l1-261h32v101c10-23 28-34 59-34zm-8 174c40 0 45-34 45-75 0-40-5-75-45-74-42 0-51 32-51 76 0 43 10 73 51 73"/><path id="aF" fill="#fff" d="M143 4C61 4 22-44 18-125c-5-107 100-154 193-111 17 8 29 25 37 43l-32 9c-13-25-37-40-76-40-61 0-88 39-88 99 0 61 29 100 91 101 35 0 62-11 79-27v-45h-74v-28h105v86C228-13 192 4 143 4"/><path id="aG" fill="#fff" d="M24-231v-30h32v30H24zM24 0v-190h32V0H24"/><path id="aH" fill="#fff" d="M59-47c-2 24 18 29 38 22v24C64 9 27 4 27-40v-127H5v-23h24l9-43h21v43h35v23H59v120"/><path id="aI" fill="#fff" d="M197 0v-115H63V0H30v-248h33v105h134v-105h34V0h-34"/><path id="aJ" fill="#fff" d="M84 4C-5 8 30-112 23-190h32v120c0 31 7 50 39 49 72-2 45-101 50-169h31l1 190h-30c-1-10 1-25-2-33-11 22-28 36-60 37"/><path id="aK" fill="#fff" d="M115-194c53 0 69 39 70 98 0 66-23 100-70 100C84 3 66-7 56-30L54 0H23l1-261h32v101c10-23 28-34 59-34zm-8 174c40 0 45-34 45-75 0-40-5-75-45-74-42 0-51 32-51 76 0 43 10 73 51 73"/><path id="aL" fill="#fff" d="M212-179c-10-28-35-45-73-45-59 0-87 40-87 99 0 60 29 101 89 101 43 0 62-24 78-52l27 14C228-24 195 4 139 4 59 4 22-46 18-125c-6-104 99-153 187-111 19 9 31 26 39 46"/><path id="aM" fill="#fff" d="M100-194c62-1 85 37 85 99 1 63-27 99-86 99S16-35 15-95c0-66 28-99 85-99zM99-20c44 1 53-31 53-75 0-43-8-75-51-75s-53 32-53 75 10 74 51 75"/><path id="aN" fill="#fff" d="M210-169c-67 3-38 105-44 169h-31v-121c0-29-5-50-35-48C34-165 62-65 56 0H25l-1-190h30c1 10-1 24 2 32 10-44 99-50 107 0 11-21 27-35 58-36 85-2 47 119 55 194h-31v-121c0-29-5-49-35-48"/><path id="aO" fill="#333" d="M197 0v-115H63V0H30v-248h33v105h134v-105h34V0h-34"/><path id="aP" fill="#333" d="M206 0h-36l-40-164L89 0H53L-1-190h32L70-26l43-164h34l41 164 42-164h31"/><path id="aQ" fill="#333" d="M30-248c87 1 191-15 191 75 0 78-77 80-158 76V0H30v-248zm33 125c57 0 124 11 124-50 0-59-68-47-124-48v98"/><path id="aR" fill="#333" d="M101-234c-31-9-42 10-38 44h38v23H63V0H32v-167H5v-23h27c-7-52 17-82 69-68v24"/><path id="aS" fill="#333" d="M96-169c-40 0-48 33-48 73s9 75 48 75c24 0 41-14 43-38l32 2c-6 37-31 61-74 61-59 0-76-41-82-99-10-93 101-131 147-64 4 7 5 14 7 22l-32 3c-4-21-16-35-41-35"/><path id="aT" fill="#333" d="M103-251c84 0 111 97 45 133-19 10-37 24-39 52H78c0-63 77-55 77-114 0-30-21-42-52-43-32 0-53 17-56 46l-32-2c7-45 34-72 88-72zM77 0v-35h34V0H77"/><path id="aU" fill="#fff" d="M24-248c93 1 206-16 204 79-1 75-69 88-152 82V0H24v-248zm52 121c47 0 100 7 100-41 0-47-54-39-100-39v80"/><path id="aV" fill="#fff" d="M25 0v-261h50V0H25"/><path id="aW" fill="#fff" d="M85 4C-2 5 27-109 22-190h50c7 57-23 150 33 157 60-5 35-97 40-157h50l1 190h-47c-2-12 1-28-3-38-12 25-28 42-61 42"/><path id="aX" fill="#fff" d="M195-6C206 82 75 100 31 46c-4-6-6-13-8-21l49-6c3 16 16 24 34 25 40 0 42-37 40-79-11 22-30 35-61 35-53 0-70-43-70-97 0-56 18-96 73-97 30 0 46 14 59 34l2-30h47zm-90-29c32 0 41-27 41-63 0-35-9-62-40-62-32 0-39 29-40 63 0 36 9 62 39 62"/><path id="aY" fill="#fff" d="M25-224v-37h50v37H25zM25 0v-190h50V0H25"/><path id="aZ" fill="#fff" d="M135-194c87-1 58 113 63 194h-50c-7-57 23-157-34-157-59 0-34 97-39 157H25l-1-190h47c2 12-1 28 3 38 12-26 28-41 61-42"/><path id="ba" fill="#fff" d="M67-125c0 53 21 87 73 88 37 1 54-22 65-47l45 17C233-25 199 4 140 4 58 4 20-42 15-125 8-235 124-281 211-232c18 10 29 29 36 50l-46 12c-8-25-30-41-62-41-52 0-71 34-72 86"/><path id="bb" fill="#fff" d="M135-150c-39-12-60 13-60 57V0H25l-1-190h47c2 13-1 29 3 40 6-28 27-53 61-41v41"/><path id="bc" fill="#fff" d="M185-48c-13 30-37 53-82 52C43 2 14-33 14-96s30-98 90-98c62 0 83 45 84 108H66c0 31 8 55 39 56 18 0 30-7 34-22zm-45-69c5-46-57-63-70-21-2 6-4 13-4 21h74"/><path id="bd" fill="#fff" d="M133-34C117-15 103 5 69 4 32 3 11-16 11-54c-1-60 55-63 116-61 1-26-3-47-28-47-18 1-26 9-28 27l-52-2c7-38 36-58 82-57s74 22 75 68l1 82c-1 14 12 18 25 15v27c-30 8-71 5-69-32zm-48 3c29 0 43-24 42-57-32 0-66-3-65 30 0 17 8 27 23 27"/><path id="be" fill="#fff" d="M115-3C79 11 28 4 28-45v-112H4v-33h27l15-45h31v45h36v33H77v99c-1 23 16 31 38 25v30"/><path id="bf" fill="#fff" d="M110-194c64 0 96 36 96 99 0 64-35 99-97 99-61 0-95-36-95-99 0-62 34-99 96-99zm-1 164c35 0 45-28 45-65 0-40-10-65-43-65-34 0-45 26-45 65 0 36 10 65 43 65"/><path id="bg" fill="#333" d="M160-131c35 5 61 23 61 61C221 17 115-2 30 0v-248c76 3 177-17 177 60 0 33-19 50-47 57zm-97-11c50-1 110 9 110-42 0-47-63-36-110-37v79zm0 115c55-2 124 14 124-45 0-56-70-42-124-44v89"/><path id="bh" fill="#333" d="M233-177c-1 41-23 64-60 70L243 0h-38l-65-103H63V0H30v-248c88 3 205-21 203 71zM63-129c60-2 137 13 137-47 0-61-80-42-137-45v92"/><path id="bi" fill="#333" d="M115-194c55 1 70 41 70 98S169 2 115 4C84 4 66-9 55-30l1 105H24l-1-265h31l2 30c10-21 28-34 59-34zm-8 174c40 0 45-34 45-75s-6-73-45-74c-42 0-51 32-51 76 0 43 10 73 51 73"/><path id="bj" fill="#333" d="M63-220v92h138v28H63V0H30v-248h175v28H63"/><path id="bk" fill="#333" d="M140-251c81 0 123 46 123 126C263-46 219 4 140 4 59 4 17-45 17-125s42-126 123-126zm0 227c63 0 89-41 89-101s-29-99-89-99c-61 0-89 39-89 99S79-25 140-24"/><path id="bl" fill="#333" d="m240 0 2-218c-23 76-54 145-80 218h-23L58-218 59 0H30v-248h44l77 211c21-75 51-140 76-211h43V0h-30"/><path id="bm" fill="#333" d="M143 0 79-87 56-68V0H24v-261h32v163l83-92h37l-77 82L181 0h-38"/><path id="bn" fill="#333" d="M106-169C34-169 62-67 57 0H25v-261h32l-1 103c12-21 28-36 61-36 89 0 53 116 60 194h-32v-121c2-32-8-49-39-48"/><path id="bo" fill="#fff" d="M114-163C36-179 61-72 57 0H25l-1-190h30c1 12-1 29 2 39 6-27 23-49 58-41v29"/><path id="bp" fill="#fff" d="M100-194c63 0 86 42 84 106H49c0 40 14 67 53 68 26 1 43-12 49-29l28 8c-11 28-37 45-77 45C44 4 14-33 15-96c1-61 26-98 85-98zm52 81c6-60-76-77-97-28-3 7-6 17-6 28h103"/><path id="bq" fill="#fff" d="M141-36C126-15 110 5 73 4 37 3 15-17 15-53c-1-64 63-63 125-63 3-35-9-54-41-54-24 1-41 7-42 31l-33-3c5-37 33-52 76-52 45 0 72 20 72 64v82c-1 20 7 32 28 27v20c-31 9-61-2-59-35zM48-53c0 20 12 33 32 33 41-3 63-29 60-74-43 2-92-5-92 41"/><path id="br" fill="#fff" d="M85-194c31 0 48 13 60 33l-1-100h32l1 261h-30c-2-10 0-23-3-31C134-8 116 4 85 4 32 4 16-35 15-94c0-66 23-100 70-100zm9 24c-40 0-46 34-46 75 0 40 6 74 45 74 42 0 51-32 51-76 0-42-9-74-50-73"/><path id="bs" fill="#fff" d="M232-93c-1 65-40 97-104 97C67 4 28-28 28-90v-158h33c8 89-33 224 67 224 102 0 64-133 71-224h33v155"/><path id="bt" fill="#fff" d="M115-194c55 1 70 41 70 98S169 2 115 4C84 4 66-9 55-30l1 105H24l-1-265h31l2 30c10-21 28-34 59-34zm-8 174c40 0 45-34 45-75s-6-73-45-74c-42 0-51 32-51 76 0 43 10 73 51 73"/><path id="bu" fill="#fff" d="M190 0 58-211 59 0H30v-248h39L202-35l-2-213h31V0h-41"/><path id="bv" fill="#fff" d="M141 0 90-78 38 0H4l68-98-65-92h35l48 74 47-74h35l-64 92 68 98h-35"/><path id="bw" fill="#fff" d="M30-248c118-7 216 8 213 122C240-48 200 0 122 0H30v-248zM63-27c89 8 146-16 146-99s-60-101-146-95v194"/><path id="bx" fill="#fff" d="M135-143c-3-34-86-38-87 0 15 53 115 12 119 90S17 21 10-45l28-5c4 36 97 45 98 0-10-56-113-15-118-90-4-57 82-63 122-42 12 7 21 19 24 35"/><path id="by" fill="#fff" d="M96-169c-40 0-48 33-48 73s9 75 48 75c24 0 41-14 43-38l32 2c-6 37-31 61-74 61-59 0-76-41-82-99-10-93 101-131 147-64 4 7 5 14 7 22l-32 3c-4-21-16-35-41-35"/><path id="bz" fill="#fff" d="M117-194c89-4 53 116 60 194h-32v-121c0-31-8-49-39-48C34-167 62-67 57 0H25l-1-190h30c1 10-1 24 2 32 11-22 29-35 61-36"/><path id="bA" fill="#333" d="M9 0v-24l116-142H16v-24h144v24L44-24h123V0H9"/><path id="bB" fill="#fff" d="M127-220V0H93v-220H8v-28h204v28h-85"/><path id="bC" fill="#fff" d="M143 0 79-87 56-68V0H24v-261h32v163l83-92h37l-77 82L181 0h-38"/><path id="bD" fill="#fff" d="M160-131c35 5 61 23 61 61C221 17 115-2 30 0v-248c76 3 177-17 177 60 0 33-19 50-47 57zm-97-11c50-1 110 9 110-42 0-47-63-36-110-37v79zm0 115c55-2 124 14 124-45 0-56-70-42-124-44v89"/><path id="bE" fill="#fff" d="M24 0v-261h32V0H24"/><path id="bF" fill="#fff" d="m240 0 2-218c-23 76-54 145-80 218h-23L58-218 59 0H30v-248h44l77 211c21-75 51-140 76-211h43V0h-30"/><path id="bG" fill="#fff" d="M179-190 93 31C79 59 56 82 12 73V49c39 6 53-20 64-50L1-190h34L92-34l54-156h33"/><path id="bH" fill="#fff" d="m0 4 72-265h28L28 4H0"/><path id="bI" fill="#fff" d="M30-248c87 1 191-15 191 75 0 78-77 80-158 76V0H30v-248zm33 125c57 0 124 11 124-50 0-59-68-47-124-48v98"/><path id="bJ" fill="#fff" d="M206 0h-36l-40-164L89 0H53L-1-190h32L70-26l43-164h34l41 164 42-164h31"/><path id="bK" fill="#fff" d="M106-169C34-169 62-67 57 0H25v-261h32l-1 103c12-21 28-36 61-36 89 0 53 116 60 194h-32v-121c2-32-8-49-39-48"/><path id="bL" fill="#fff" d="M177-190C167-65 218 103 67 71c-23-6-38-20-44-43l32-5c15 47 100 32 89-28v-30C133-14 115 1 83 1 29 1 15-40 15-95c0-56 16-97 71-98 29-1 48 16 59 35 1-10 0-23 2-32h30zM94-22c36 0 50-32 50-73 0-42-14-75-50-75-39 0-46 34-46 75s6 73 46 73"/><path id="bM" fill="#fff" d="M30 0v-248h33v221h125V0H30"/><path id="bN" fill="#fff" d="M137 0h-34L2-248h35l83 218 83-218h36"/><path id="bO" fill="#333" d="M24-248c93 1 206-16 204 79-1 75-69 88-152 82V0H24v-248zm52 121c47 0 100 7 100-41 0-47-54-39-100-39v80"/><path id="bP" fill="#333" d="M25 0v-261h50V0H25"/><path id="bQ" fill="#333" d="M85 4C-2 5 27-109 22-190h50c7 57-23 150 33 157 60-5 35-97 40-157h50l1 190h-47c-2-12 1-28-3-38-12 25-28 42-61 42"/><path id="bR" fill="#333" d="M195-6C206 82 75 100 31 46c-4-6-6-13-8-21l49-6c3 16 16 24 34 25 40 0 42-37 40-79-11 22-30 35-61 35-53 0-70-43-70-97 0-56 18-96 73-97 30 0 46 14 59 34l2-30h47zm-90-29c32 0 41-27 41-63 0-35-9-62-40-62-32 0-39 29-40 63 0 36 9 62 39 62"/><path id="bS" fill="#333" d="M25-224v-37h50v37H25zM25 0v-190h50V0H25"/><path id="bT" fill="#333" d="M135-194c87-1 58 113 63 194h-50c-7-57 23-157-34-157-59 0-34 97-39 157H25l-1-190h47c2 12-1 28 3 38 12-26 28-41 61-42"/><path id="bU" fill="#333" d="M67-125c0 53 21 87 73 88 37 1 54-22 65-47l45 17C233-25 199 4 140 4 58 4 20-42 15-125 8-235 124-281 211-232c18 10 29 29 36 50l-46 12c-8-25-30-41-62-41-52 0-71 34-72 86"/><path id="bV" fill="#333" d="M135-150c-39-12-60 13-60 57V0H25l-1-190h47c2 13-1 29 3 40 6-28 27-53 61-41v41"/><path id="bW" fill="#333" d="M185-48c-13 30-37 53-82 52C43 2 14-33 14-96s30-98 90-98c62 0 83 45 84 108H66c0 31 8 55 39 56 18 0 30-7 34-22zm-45-69c5-46-57-63-70-21-2 6-4 13-4 21h74"/><path id="bX" fill="#333" d="M133-34C117-15 103 5 69 4 32 3 11-16 11-54c-1-60 55-63 116-61 1-26-3-47-28-47-18 1-26 9-28 27l-52-2c7-38 36-58 82-57s74 22 75 68l1 82c-1 14 12 18 25 15v27c-30 8-71 5-69-32zm-48 3c29 0 43-24 42-57-32 0-66-3-65 30 0 17 8 27 23 27"/><path id="bY" fill="#333" d="M115-3C79 11 28 4 28-45v-112H4v-33h27l15-45h31v45h36v33H77v99c-1 23 16 31 38 25v30"/><path id="bZ" fill="#333" d="M110-194c64 0 96 36 96 99 0 64-35 99-97 99-61 0-95-36-95-99 0-62 34-99 96-99zm-1 164c35 0 45-28 45-65 0-40-10-65-43-65-34 0-45 26-45 65 0 36 10 65 43 65"/><path id="ca" fill="#333" d="M190 0 58-211 59 0H30v-248h39L202-35l-2-213h31V0h-41"/><g id="a"><use xlink:href="#af" transform="rotate(.41) scale(.06173)"/><use xlink:href="#ag" transform="translate(17.28) scale(.06173)"/><use xlink:href="#ah" transform="translate(29.63) scale(.06173)"/></g><g id="b"><use xlink:href="#ai" transform="rotate(.41) scale(.06173)"/><use xlink:href="#aj" transform="translate(6.17) scale(.06173)"/><use xlink:href="#ag" transform="translate(18.52) scale(.06173)"/><use xlink:href="#ak" transform="translate(30.86) scale(.06173)"/><use xlink:href="#al" transform="translate(43.21) scale(.06173)"/><use xlink:href="#am" transform="translate(50.56) scale(.06173)"/><use xlink:href="#an" transform="translate(61.67) scale(.06173)"/></g><g id="c"><use xlink:href="#ao" transform="rotate(.41) scale(.06173)"/><use xlink:href="#ap" transform="translate(15.99) scale(.06173)"/><use xlink:href="#ag" transform="translate(23.33) scale(.06173)"/><use xlink:href="#ak" transform="translate(35.68) scale(.06173)"/><use xlink:href="#ah" transform="translate(48.02) scale(.06173)"/><use xlink:href="#aq" transform="translate(54.2) scale(.06173)"/><use xlink:href="#ar" transform="translate(59.07) scale(.06173)"/><use xlink:href="#as" transform="translate(71.42) scale(.06173)"/></g><g id="d"><use xlink:href="#at" transform="rotate(.41) scale(.06173)"/><use xlink:href="#aq" transform="translate(14.81) scale(.06173)"/><use xlink:href="#ah" transform="translate(19.7) scale(.06173)"/></g><g id="e"><use xlink:href="#au" transform="rotate(.41) scale(.06173)"/><use xlink:href="#aq" transform="translate(14.38) scale(.06173)"/><use xlink:href="#am" transform="translate(19.26) scale(.06173)"/><use xlink:href="#av" transform="translate(30.37) scale(.06173)"/><use xlink:href="#ak" transform="translate(42.72) scale(.06173)"/><use xlink:href="#aw" transform="translate(55.06) scale(.06173)"/></g><g id="f"><use xlink:href="#ax" transform="rotate(.41) scale(.06173)"/><use xlink:href="#ah" transform="translate(14.81) scale(.06173)"/><use xlink:href="#av" transform="translate(20.99) scale(.06173)"/><use xlink:href="#aj" transform="translate(33.33) scale(.06173)"/><use xlink:href="#aq" transform="translate(45.68) scale(.06173)"/><use xlink:href="#ar" transform="translate(50.56) scale(.06173)"/></g><g id="g"><use xlink:href="#ao" transform="rotate(.41) scale(.06173)"/><use xlink:href="#ar" transform="translate(15.99) scale(.06173)"/><use xlink:href="#aj" transform="translate(28.33) scale(.06173)"/><use xlink:href="#ag" transform="translate(40.68) scale(.06173)"/></g><g id="h"><use xlink:href="#ay" transform="rotate(.41) scale(.06173)"/><use xlink:href="#az" transform="translate(11.11) scale(.06173)"/><use xlink:href="#aj" transform="translate(25.93) scale(.06173)"/><use xlink:href="#aq" transform="translate(38.27) scale(.06173)"/><use xlink:href="#ah" transform="translate(43.15) scale(.06173)"/></g><g id="l"><use xlink:href="#az" transform="rotate(.41) scale(.06173)"/><use xlink:href="#ay" transform="translate(14.81) scale(.06173)"/><use xlink:href="#ah" transform="translate(25.93) scale(.06173)"/><use xlink:href="#ag" transform="translate(32.1) scale(.06173)"/><use xlink:href="#as" transform="translate(44.44) scale(.06173)"/><use xlink:href="#am" transform="translate(56.79) scale(.06173)"/><use xlink:href="#aq" transform="translate(67.9) scale(.06173)"/><use xlink:href="#aA" transform="translate(72.78) scale(.06173)"/><use xlink:href="#ag" transform="translate(83.89) scale(.06173)"/></g><g id="m"><use xlink:href="#aB" transform="rotate(.41) scale(.06173)"/><use xlink:href="#ag" transform="translate(11.05) scale(.06173)"/><use xlink:href="#am" transform="translate(23.4) scale(.06173)"/><use xlink:href="#ah" transform="translate(34.5) scale(.06173)"/><use xlink:href="#aq" transform="translate(40.68) scale(.06173)"/><use xlink:href="#as" transform="translate(45.56) scale(.06173)"/><use xlink:href="#aC" transform="translate(57.9) scale(.06173)"/></g><g id="n"><use xlink:href="#aD" transform="rotate(.41) scale(.06173)"/><use xlink:href="#ag" transform="translate(15.99) scale(.06173)"/><use xlink:href="#aE" transform="translate(28.33) scale(.06173)"/><use xlink:href="#av" transform="translate(40.68) scale(.06173)"/><use xlink:href="#aC" transform="translate(53.02) scale(.06173)"/></g><g id="o"><use xlink:href="#ai" transform="rotate(.41) scale(.06173)"/><use xlink:href="#am" transform="translate(6.17) scale(.06173)"/><use xlink:href="#am" transform="translate(17.28) scale(.06173)"/><use xlink:href="#av" transform="translate(28.4) scale(.06173)"/><use xlink:href="#ag" transform="translate(40.74) scale(.06173)"/></g><g id="p"><use xlink:href="#aF" transform="rotate(.41) scale(.06173)"/><use xlink:href="#aG" transform="translate(17.28) scale(.06173)"/><use xlink:href="#aH" transform="translate(22.16) scale(.06173)"/><use xlink:href="#aI" transform="translate(28.33) scale(.06173)"/><use xlink:href="#aJ" transform="translate(44.32) scale(.06173)"/><use xlink:href="#aK" transform="translate(56.67) scale(.06173)"/></g><g id="q"><use xlink:href="#aL" transform="rotate(.41) scale(.06173)"/><use xlink:href="#aM" transform="translate(15.99) scale(.06173)"/><use xlink:href="#aN" transform="translate(28.33) scale(.06173)"/><use xlink:href="#aN" transform="translate(46.79) scale(.06173)"/><use xlink:href="#aG" transform="translate(65.25) scale(.06173)"/><use xlink:href="#aH" transform="translate(70.12) scale(.06173)"/></g><g id="r"><use xlink:href="#aO" transform="rotate(.41) scale(.06173)"/><use xlink:href="#ar" transform="translate(15.99) scale(.06173)"/><use xlink:href="#aP" transform="translate(28.33) scale(.06173)"/></g><g id="s"><use xlink:href="#ah" transform="rotate(.41) scale(.06173)"/><use xlink:href="#ar" transform="translate(6.17) scale(.06173)"/></g><g id="t"><use xlink:href="#aQ" transform="rotate(.41) scale(.06173)"/><use xlink:href="#ag" transform="translate(14.81) scale(.06173)"/><use xlink:href="#ap" transform="translate(27.16) scale(.06173)"/><use xlink:href="#aR" transform="translate(34.5) scale(.06173)"/><use xlink:href="#ag" transform="translate(40.68) scale(.06173)"/><use xlink:href="#aS" transform="translate(53.02) scale(.06173)"/><use xlink:href="#ah" transform="translate(64.14) scale(.06173)"/><use xlink:href="#aT" transform="translate(70.3) scale(.06173)"/></g><g id="v"><use xlink:href="#aU" transform="rotate(.41) scale(.06173)"/><use xlink:href="#aV" transform="translate(14.81) scale(.06173)"/><use xlink:href="#aW" transform="translate(20.99) scale(.06173)"/><use xlink:href="#aX" transform="translate(34.5) scale(.06173)"/><use xlink:href="#aY" transform="translate(48.02) scale(.06173)"/><use xlink:href="#aZ" transform="translate(54.2) scale(.06173)"/></g><g id="w"><use xlink:href="#ba" transform="rotate(.41) scale(.06173)"/><use xlink:href="#bb" transform="translate(15.99) scale(.06173)"/><use xlink:href="#bc" transform="translate(24.63) scale(.06173)"/><use xlink:href="#bd" transform="translate(36.98) scale(.06173)"/><use xlink:href="#be" transform="translate(49.32) scale(.06173)"/><use xlink:href="#aY" transform="translate(56.67) scale(.06173)"/><use xlink:href="#bf" transform="translate(62.84) scale(.06173)"/><use xlink:href="#aZ" transform="translate(76.36) scale(.06173)"/></g><g id="x"><use xlink:href="#bg" transform="rotate(.41) scale(.06173)"/><use xlink:href="#av" transform="translate(14.81) scale(.06173)"/><use xlink:href="#aC" transform="translate(27.16) scale(.06173)"/></g><g id="y"><use xlink:href="#bh" transform="rotate(.41) scale(.06173)"/><use xlink:href="#ag" transform="translate(15.99) scale(.06173)"/><use xlink:href="#bi" transform="translate(28.33) scale(.06173)"/><use xlink:href="#ar" transform="translate(40.68) scale(.06173)"/><use xlink:href="#ap" transform="translate(53.02) scale(.06173)"/><use xlink:href="#ah" transform="translate(60.37) scale(.06173)"/><use xlink:href="#ag" transform="translate(66.54) scale(.06173)"/><use xlink:href="#aj" transform="translate(78.89) scale(.06173)"/></g><g id="z"><use xlink:href="#bj" transform="rotate(.41) scale(.06173)"/><use xlink:href="#bk" transform="translate(13.52) scale(.06173)"/><use xlink:href="#bl" transform="translate(30.8) scale(.06173)"/><use xlink:href="#bk" transform="translate(49.26) scale(.06173)"/><use xlink:href="#aD" transform="translate(66.54) scale(.06173)"/></g><g id="A"><use xlink:href="#aB" transform="rotate(.41) scale(.06173)"/><use xlink:href="#ak" transform="translate(11.05) scale(.06173)"/><use xlink:href="#bm" transform="translate(23.4) scale(.06173)"/><use xlink:href="#ag" transform="translate(34.5) scale(.06173)"/></g><g id="B"><use xlink:href="#ax" transform="rotate(.41) scale(.06173)"/><use xlink:href="#aS" transform="translate(14.81) scale(.06173)"/><use xlink:href="#ap" transform="translate(25.93) scale(.06173)"/><use xlink:href="#ag" transform="translate(33.27) scale(.06173)"/><use xlink:href="#ag" transform="translate(45.62) scale(.06173)"/><use xlink:href="#as" transform="translate(57.96) scale(.06173)"/><use xlink:href="#am" transform="translate(70.3) scale(.06173)"/><use xlink:href="#bn" transform="translate(81.42) scale(.06173)"/><use xlink:href="#ar" transform="translate(93.77) scale(.06173)"/><use xlink:href="#ah" transform="translate(106.11) scale(.06173)"/><use xlink:href="#am" transform="translate(112.28) scale(.06173)"/></g><g id="D"><use xlink:href="#aL" transform="rotate(.41) scale(.06173)"/><use xlink:href="#bo" transform="translate(15.99) scale(.06173)"/><use xlink:href="#bp" transform="translate(23.33) scale(.06173)"/><use xlink:href="#bq" transform="translate(35.68) scale(.06173)"/><use xlink:href="#aH" transform="translate(48.02) scale(.06173)"/><use xlink:href="#bp" transform="translate(54.2) scale(.06173)"/><use xlink:href="#br" transform="translate(66.54) scale(.06173)"/></g><g id="E"><use xlink:href="#bs" transform="rotate(.41) scale(.06173)"/><use xlink:href="#bt" transform="translate(15.99) scale(.06173)"/><use xlink:href="#br" transform="translate(28.33) scale(.06173)"/><use xlink:href="#bq" transform="translate(40.68) scale(.06173)"/><use xlink:href="#aH" transform="translate(53.02) scale(.06173)"/><use xlink:href="#bp" transform="translate(59.2) scale(.06173)"/><use xlink:href="#br" transform="translate(71.54) scale(.06173)"/></g><g id="F"><use xlink:href="#bu" transform="rotate(.41) scale(.06173)"/><use xlink:href="#bp" transform="translate(15.99) scale(.06173)"/><use xlink:href="#bv" transform="translate(28.33) scale(.06173)"/><use xlink:href="#aJ" transform="translate(39.44) scale(.06173)"/><use xlink:href="#bv" transform="translate(51.79) scale(.06173)"/></g><g id="G"><use xlink:href="#bw" transform="rotate(.41) scale(.06173)"/><use xlink:href="#bp" transform="translate(15.99) scale(.06173)"/><use xlink:href="#bx" transform="translate(28.33) scale(.06173)"/><use xlink:href="#by" transform="translate(39.44) scale(.06173)"/><use xlink:href="#bo" transform="translate(50.56) scale(.06173)"/><use xlink:href="#aG" transform="translate(57.9) scale(.06173)"/><use xlink:href="#bt" transform="translate(62.78) scale(.06173)"/><use xlink:href="#aH" transform="translate(75.12) scale(.06173)"/><use xlink:href="#aG" transform="translate(81.3) scale(.06173)"/><use xlink:href="#aM" transform="translate(86.17) scale(.06173)"/><use xlink:href="#bz" transform="translate(98.52) scale(.06173)"/></g><g id="H"><use xlink:href="#bj" transform="rotate(.41) scale(.06173)"/><use xlink:href="#aq" transform="translate(13.52) scale(.06173)"/><use xlink:href="#as" transform="translate(18.4) scale(.06173)"/><use xlink:href="#ak" transform="translate(30.74) scale(.06173)"/><use xlink:href="#aw" transform="translate(43.09) scale(.06173)"/><use xlink:href="#aq" transform="translate(47.96) scale(.06173)"/><use xlink:href="#bA" transform="translate(52.84) scale(.06173)"/><use xlink:href="#ag" transform="translate(63.95) scale(.06173)"/></g><g id="I"><use xlink:href="#bj" transform="rotate(.41) scale(.06173)"/><use xlink:href="#bk" transform="translate(13.52) scale(.06173)"/><use xlink:href="#bl" transform="translate(30.8) scale(.06173)"/><use xlink:href="#bk" transform="translate(49.26) scale(.06173)"/><use xlink:href="#aD" transform="translate(66.54) scale(.06173)"/></g><g id="J"><use xlink:href="#bB" transform="rotate(.41) scale(.06173)"/><use xlink:href="#bq" transform="translate(11.05) scale(.06173)"/><use xlink:href="#bC" transform="translate(23.4) scale(.06173)"/><use xlink:href="#bp" transform="translate(34.5) scale(.06173)"/></g><g id="L"><use xlink:href="#bD" transform="rotate(.41) scale(.06173)"/><use xlink:href="#bo" transform="translate(14.81) scale(.06173)"/><use xlink:href="#bp" transform="translate(22.16) scale(.06173)"/><use xlink:href="#bq" transform="translate(34.5) scale(.06173)"/><use xlink:href="#bC" transform="translate(46.85) scale(.06173)"/></g><g id="M"><use xlink:href="#bs" transform="rotate(.41) scale(.06173)"/><use xlink:href="#bt" transform="translate(15.99) scale(.06173)"/><use xlink:href="#bE" transform="translate(28.33) scale(.06173)"/><use xlink:href="#aM" transform="translate(33.21) scale(.06173)"/><use xlink:href="#bq" transform="translate(45.56) scale(.06173)"/><use xlink:href="#br" transform="translate(57.9) scale(.06173)"/></g><g id="N"><use xlink:href="#bF" transform="rotate(.41) scale(.06173)"/><use xlink:href="#aM" transform="translate(18.46) scale(.06173)"/><use xlink:href="#br" transform="translate(30.8) scale(.06173)"/></g><g id="O"><use xlink:href="#aL" transform="rotate(.41) scale(.06173)"/><use xlink:href="#aM" transform="translate(15.99) scale(.06173)"/><use xlink:href="#bt" transform="translate(28.33) scale(.06173)"/><use xlink:href="#bG" transform="translate(40.68) scale(.06173)"/><use xlink:href="#bH" transform="translate(51.79) scale(.06173)"/><use xlink:href="#bI" transform="translate(57.96) scale(.06173)"/><use xlink:href="#bq" transform="translate(72.78) scale(.06173)"/><use xlink:href="#bx" transform="translate(85.12) scale(.06173)"/><use xlink:href="#aH" transform="translate(96.23) scale(.06173)"/><use xlink:href="#bp" transform="translate(102.4) scale(.06173)"/></g><g id="P"><use xlink:href="#bu" transform="rotate(.41) scale(.06173)"/><use xlink:href="#bp" transform="translate(15.99) scale(.06173)"/><use xlink:href="#bJ" transform="translate(28.33) scale(.06173)"/></g><g id="Q"><use xlink:href="#bu" transform="rotate(.41) scale(.06173)"/><use xlink:href="#bp" transform="translate(15.99) scale(.06173)"/><use xlink:href="#bv" transform="translate(28.33) scale(.06173)"/><use xlink:href="#aJ" transform="translate(39.44) scale(.06173)"/><use xlink:href="#bx" transform="translate(51.79) scale(.06173)"/></g><g id="R"><use xlink:href="#aL" transform="rotate(.41) scale(.06173)"/><use xlink:href="#bK" transform="translate(15.99) scale(.06173)"/><use xlink:href="#bq" transform="translate(28.33) scale(.06173)"/><use xlink:href="#bz" transform="translate(40.68) scale(.06173)"/><use xlink:href="#bL" transform="translate(53.02) scale(.06173)"/><use xlink:href="#bp" transform="translate(65.37) scale(.06173)"/></g><g id="S"><use xlink:href="#bF" transform="rotate(.41) scale(.06173)"/><use xlink:href="#aM" transform="translate(18.46) scale(.06173)"/><use xlink:href="#br" transform="translate(30.8) scale(.06173)"/></g><g id="T"><use xlink:href="#bM" transform="rotate(.41) scale(.06173)"/><use xlink:href="#bq" transform="translate(12.35) scale(.06173)"/><use xlink:href="#aH" transform="translate(24.7) scale(.06173)"/><use xlink:href="#bp" transform="translate(30.86) scale(.06173)"/><use xlink:href="#bx" transform="translate(43.21) scale(.06173)"/><use xlink:href="#aH" transform="translate(54.32) scale(.06173)"/></g><g id="U"><use xlink:href="#bN" transform="rotate(.41) scale(.06173)"/><use xlink:href="#bp" transform="translate(13.58) scale(.06173)"/><use xlink:href="#bo" transform="translate(25.93) scale(.06173)"/><use xlink:href="#bx" transform="translate(33.27) scale(.06173)"/><use xlink:href="#aG" transform="translate(44.38) scale(.06173)"/><use xlink:href="#aM" transform="translate(49.26) scale(.06173)"/><use xlink:href="#bz" transform="translate(61.6) scale(.06173)"/></g><g id="V"><use xlink:href="#bu" transform="rotate(.41) scale(.06173)"/><use xlink:href="#aJ" transform="translate(15.99) scale(.06173)"/><use xlink:href="#aN" transform="translate(28.33) scale(.06173)"/><use xlink:href="#aK" transform="translate(46.79) scale(.06173)"/><use xlink:href="#bp" transform="translate(59.14) scale(.06173)"/><use xlink:href="#bo" transform="translate(71.48) scale(.06173)"/></g><g id="W"><use xlink:href="#bO" transform="rotate(.41) scale(.06173)"/><use xlink:href="#bP" transform="translate(14.81) scale(.06173)"/><use xlink:href="#bQ" transform="translate(20.99) scale(.06173)"/><use xlink:href="#bR" transform="translate(34.5) scale(.06173)"/><use xlink:href="#bS" transform="translate(48.02) scale(.06173)"/><use xlink:href="#bT" transform="translate(54.2) scale(.06173)"/></g><g id="X"><use xlink:href="#bU" transform="rotate(.41) scale(.06173)"/><use xlink:href="#bV" transform="translate(15.99) scale(.06173)"/><use xlink:href="#bW" transform="translate(24.63) scale(.06173)"/><use xlink:href="#bX" transform="translate(36.98) scale(.06173)"/><use xlink:href="#bY" transform="translate(49.32) scale(.06173)"/><use xlink:href="#bS" transform="translate(56.67) scale(.06173)"/><use xlink:href="#bZ" transform="translate(62.84) scale(.06173)"/><use xlink:href="#bT" transform="translate(76.36) scale(.06173)"/></g><g id="Y"><use xlink:href="#bg" transform="scale(.04938)"/><use xlink:href="#av" transform="translate(11.85) scale(.04938)"/><use xlink:href="#aC" transform="translate(21.73) scale(.04938)"/><use xlink:href="#am" transform="translate(31.6) scale(.04938)"/></g><g id="Z"><use xlink:href="#bj" transform="scale(.04938)"/><use xlink:href="#ar" transform="translate(10.81) scale(.04938)"/><use xlink:href="#av" transform="translate(20.7) scale(.04938)"/><use xlink:href="#as" transform="translate(30.57) scale(.04938)"/><use xlink:href="#aj" transform="translate(40.44) scale(.04938)"/></g><g id="aa"><use xlink:href="#ca" transform="scale(.04938)"/><use xlink:href="#ag" transform="translate(12.79) scale(.04938)"/><use xlink:href="#ag" transform="translate(22.67) scale(.04938)"/><use xlink:href="#aj" transform="translate(32.54) scale(.04938)"/><use xlink:href="#am" transform="translate(42.42) scale(.04938)"/></g><g id="ab"><use xlink:href="#aQ" transform="scale(.04938)"/><use xlink:href="#ag" transform="translate(11.85) scale(.04938)"/><use xlink:href="#ap" transform="translate(21.73) scale(.04938)"/><use xlink:href="#aR" transform="translate(27.6) scale(.04938)"/><use xlink:href="#ag" transform="translate(32.54) scale(.04938)"/><use xlink:href="#aS" transform="translate(42.42) scale(.04938)"/><use xlink:href="#ah" transform="translate(51.3) scale(.04938)"/><use xlink:href="#aq" transform="translate(56.25) scale(.04938)"/><use xlink:href="#as" transform="translate(60.15) scale(.04938)"/><use xlink:href="#aC" transform="translate(70.02) scale(.04938)"/></g><g id="ac"><use xlink:href="#bj" transform="scale(.04938)"/><use xlink:href="#ar" transform="translate(10.81) scale(.04938)"/><use xlink:href="#ap" transform="translate(20.7) scale(.04938)"/></g><g id="ad"><use xlink:href="#aQ" transform="scale(.04938)"/><use xlink:href="#ak" transform="translate(11.85) scale(.04938)"/><use xlink:href="#ah" transform="translate(21.73) scale(.04938)"/><use xlink:href="#aS" transform="translate(26.67) scale(.04938)"/><use xlink:href="#bn" transform="translate(35.56) scale(.04938)"/><use xlink:href="#ag" transform="translate(45.43) scale(.04938)"/><use xlink:href="#am" transform="translate(55.3) scale(.04938)"/></g><g id="ae"><use xlink:href="#aQ" transform="scale(.04938)"/><use xlink:href="#az" transform="translate(11.85) scale(.04938)"/><use xlink:href="#bh" transform="translate(23.7) scale(.04938)"/><use xlink:href="#bj" transform="translate(36.5) scale(.04938)"/><use xlink:href="#az" transform="translate(47.3) scale(.04938)"/><use xlink:href="#ao" transform="translate(59.16) scale(.04938)"/><use xlink:href="#aB" transform="translate(71.95) scale(.04938)"/><use xlink:href="#ai" transform="translate(82.77) scale(.04938)"/><use xlink:href="#bk" transform="translate(87.7) scale(.04938)"/><use xlink:href="#ca" transform="translate(101.53) scale(.04938)"/></g><use xlink:href="#bq" id="K" transform="rotate(.41) scale(.06173)"/></defs></g></svg>
